<?xml version="1.0" standalone="no"?><!DOCTYPE svg PUBLIC "-//W3C//DTD SVG 1.1//EN" "http://www.w3.org/Graphics/SVG/1.1/DTD/svg11.dtd"><svg t="1560956820718" class="icon" style="" viewBox="0 0 1024 1024" version="1.1" xmlns="http://www.w3.org/2000/svg" p-id="9071" xmlns:xlink="http://www.w3.org/1999/xlink" width="16" height="16"><defs><style type="text/css"></style></defs><path d="M508.5 108.5c-219.4 0-397.3 177.9-397.3 397.3s177.9 397.3 397.3 397.3 397.3-177.9 397.3-397.3-177.9-397.3-397.3-397.3z m196.8 343.2L501 656c-1.8 1.8-3.8 3.4-5.8 4.7-1.3 2.1-2.9 4-4.7 5.8-14.1 14.1-37 14.1-51.1 0L311.6 538.9c-14.1-14.1-14.1-37 0-51.1 14.1-14.1 37-14.1 51.1 0L464.9 590l189.4-189.4c14.1-14.1 37-14.1 51.1 0 14.1 14.1 14.1 37-0.1 51.1z" p-id="9072"></path></svg>