<svg class="icon" viewBox="0 0 1024 1024" xmlns="http://www.w3.org/2000/svg" width="64" height="64"><defs><style/></defs><path d="M354.007 166.888H678.82c22.36 0 40.601-18.241 40.601-40.602V45.084H597.616V30.079c0-14.123-11.474-25.597-25.597-25.597H460.954c-14.122 0-25.597 11.474-25.597 25.597v15.005H313.553v81.202c-.147 22.214 18.094 40.602 40.454 40.602zm0 0"/><path d="M881.973 45.084h-81.35v142.105c0 33.54-27.362 60.902-60.902 60.902H293.105c-33.54 0-60.902-27.362-60.902-60.902V45.084h-81.35c-44.573 0-81.056 36.482-81.056 81.055v812.176c0 44.573 36.483 81.056 81.056 81.056h730.973c44.573 0 81.056-36.483 81.056-81.056V126.139c.147-44.573-36.336-81.055-80.91-81.055zm-123.128 552.09l-92.09 89.736 21.773 126.659c2.5 14.71-3.53 29.568-15.594 38.247-12.062 8.68-28.097 9.856-41.19 2.942l-113.713-59.872-113.713 59.872a39.282 39.282 0 0 1-41.19-2.942c-12.063-8.826-18.094-23.537-15.593-38.247l21.771-126.66-92.088-89.734c-10.592-10.445-14.564-25.891-9.857-40.16 4.56-14.123 16.77-24.42 31.628-26.627L425.942 512l56.93-115.332c6.62-13.386 20.154-21.771 35.012-21.771s28.392 8.385 35.011 21.771L609.825 512l127.248 18.388c14.71 2.207 26.92 12.504 31.628 26.627 4.56 14.122.735 29.715-9.856 40.16z"/></svg>