<svg class="icon" viewBox="0 0 1024 1024" xmlns="http://www.w3.org/2000/svg" width="64" height="64"><defs><style/></defs><path d="M998.143 905.024C937.627 719.342 762.33 586.697 555.545 582.9c-25.792-.447-50.133.111-73.245 1.674v183.449c.112.558.223 1.116.223 1.674 0 4.467-3.684 8.151-8.15 8.151-3.015 0-5.583-1.563-6.923-3.908v.782L17.148 459.969h2.344c-4.466 0-8.15-3.685-8.15-8.15 0-3.239 1.898-6.03 4.577-7.37l451.42-315.424v.782c1.45-2.345 4.019-3.908 6.922-3.908 4.466 0 8.15 3.685 8.15 8.15 0 .559-.111 1.117-.223 1.676v177.977c20.656-1.005 42.317-1.34 65.095-.894 256.917 4.355 465.264 219.848 465.264 476.877.111 39.637-5.025 78.381-14.404 115.339zM482.3 118.53v.223h-.447l.447-.223zm0 666.465l-.335-.223h.335v.223z"/></svg>