<svg class="icon" viewBox="0 0 1024 1024" xmlns="http://www.w3.org/2000/svg" width="64" height="64"><defs><style/></defs><path d="M525.701 617.067L259.025 461.004V155.636L525.713-.427l266.676 156.074v305.357L525.701 617.067zm-189.477-189.99L532.727 542.42 729.23 427.077V196.355L532.727 81.012 336.224 196.355v230.722z"/><path d="M266.05 1024.218L-.636 868.143V562.786L266.05 406.711l266.664 156.087v305.357l-266.688 156.074zM69.549 827.435L266.04 942.778l196.503-115.343V596.702L266.051 481.358 69.559 596.713v230.71z"/><path d="M757.297 1024.218L490.609 868.143V562.786l266.688-156.075 266.688 156.075v305.357l-266.688 156.075zM560.794 827.435l196.503 115.343L953.8 827.435V596.702L757.297 481.358 560.794 596.713v230.71z"/><path d="M322.184 189.575l203.517 122.147v251.064L329.21 501.712l-7.026-312.137zm217.557 400.357l210.53 122.136 7.026 285.003-217.556-142.49v-264.66zm-491.258 0L266.05 718.861v264.637L48.483 854.57V589.944z"/></svg>