<svg class="icon" viewBox="0 0 1024 1024" xmlns="http://www.w3.org/2000/svg" width="64" height="64"><defs><style/></defs><path d="M893.7 253c-20.9-49.3-50.7-93.6-88.8-131.7-38-38-82.3-67.9-131.7-88.8C622.2 11 567.9 0 512 0c-55.9 0-110.2 11-161.2 32.6-49.3 20.9-93.6 50.7-131.7 88.8-38 38-67.9 82.3-88.8 131.7-21.6 51.1-32.6 105.3-32.6 161.2 0 55.9 11 110.2 32.6 161.2 20.9 49.3 50.7 93.6 88.8 131.7 38 38 82.3 67.9 131.7 88.8 12.1 5.1 24.4 9.6 36.9 13.6l-57.1 141.6H198.3c-20.1 0-36.4 16.3-36.4 36.4 0 20.1 16.3 36.4 36.4 36.4h627.5c20.1 0 36.4-16.3 36.4-36.4 0-20.1-16.3-36.4-36.4-36.4H700l-56.7-143.9c26.3-8.8 51.7-20.2 75.8-34.1 61.8-35.8 113.7-87.2 150-148.7 37.4-63.4 57.1-136.1 57.1-210.1 0-56.1-10.9-110.3-32.5-161.4zM513.5 68.9c28.6 0 51.9 23.3 51.9 51.9s-23.3 51.9-51.9 51.9c-28.6 0-51.9-23.3-51.9-51.9s23.2-51.9 51.9-51.9zm-1.4 649c-128.2 0-232.5-104.3-232.5-232.5s104.3-232.5 232.5-232.5 232.5 104.3 232.5 232.5-104.3 232.5-232.5 232.5z"/><path d="M512 336c-82.4 0-149.5 67-149.5 149.5S429.5 635 512 635c82.4 0 149.5-67 149.5-149.5S594.4 336 512 336z"/></svg>