<svg class="icon" viewBox="0 0 1024 1024" xmlns="http://www.w3.org/2000/svg" width="64" height="64"><defs><style/></defs><path d="M565.524 377.814l-53.57-158.84-53.57 158.84H75.92V992h872.068V377.814zM823.407 867.42H200.501V502.396h622.906z"/><path d="M262.791 684.907a93.436 93.436 0 1 0 186.872 0 93.436 93.436 0 1 0-186.872 0zm311.453-93.436h62.291v186.872h-62.29zm124.582 0h62.29v186.872h-62.29zM661.45 205.27l74.75-99.665a379.35 379.35 0 0 0-449.116 0l74.748 99.665a252.9 252.9 0 0 1 299.618 0z"/></svg>