<svg class="icon" viewBox="0 0 1024 1024" xmlns="http://www.w3.org/2000/svg" width="64" height="64"><defs><style/></defs><path d="M803.271 1021.724H220.73c-60.075 0-109.227-49.152-109.227-109.226v-655.36c0-20.025 16.384-36.41 36.41-36.41s36.408 16.385 36.408 36.41v655.36c0 20.025 16.384 36.409 36.409 36.409H803.27c20.025 0 36.409-16.384 36.409-36.41v-655.36c0-20.024 16.384-36.408 36.409-36.408s36.409 16.384 36.409 36.409v655.36c0 60.074-49.152 109.226-109.227 109.226zm145.636-873.813H694.044c-9.102 0-18.204-3.64-25.486-10.923l-50.972-50.972c-7.282-7.282-16.384-10.923-27.307-10.923H431.9c-9.102 0-18.204 3.641-25.486 10.923l-50.972 50.972c-7.282 7.282-16.384 10.923-25.486 10.923H75.093c-20.025 0-36.409-16.384-36.409-36.409s16.384-36.409 36.41-36.409h240.298l40.05-40.05c20.025-21.845 49.152-32.767 78.279-32.767H592.1c29.127 0 56.433 10.922 76.458 32.768l40.05 40.05h240.299c20.025 0 36.409 16.383 36.409 36.408s-16.384 36.41-36.41 36.41z"/><path d="M384.569 876.089c-20.025 0-36.409-16.384-36.409-36.409V257.138c0-20.025 16.384-36.41 36.409-36.41s36.409 16.385 36.409 36.41V839.68c0 20.025-16.384 36.409-36.41 36.409zm254.862 0c-20.025 0-36.409-16.384-36.409-36.409V257.138c0-20.025 16.384-36.41 36.41-36.41s36.408 16.385 36.408 36.41V839.68c0 20.025-16.384 36.409-36.409 36.409z"/></svg>