<?xml version="1.0" standalone="no"?><!DOCTYPE svg PUBLIC "-//W3C//DTD SVG 1.1//EN" "http://www.w3.org/Graphics/SVG/1.1/DTD/svg11.dtd"><svg t="1566871902170" class="icon" viewBox="0 0 1024 1024" version="1.1" xmlns="http://www.w3.org/2000/svg" p-id="2124" width="64" height="64" xmlns:xlink="http://www.w3.org/1999/xlink"><defs><style type="text/css"></style></defs><path d="M161.77422677 936.51478301c0 46.91061191 37.99444025 84.90272427 84.90272427 84.90272426l530.64377003 0c46.90944797 0 84.90272427-37.99211235 84.90272426-84.90272426l0-764.12684288c0-46.90944797-37.99444025-84.90039523-84.90272426-84.90039524l-106.12898702 0L671.19173405 49.28236771c0-25.89974301-20.81177373-46.70103893-46.70103894-46.70103893L399.50697586 2.58132878c-25.88926521 0-46.70103893 20.80129593-46.70103893 46.70103893l0 38.20401323-106.12898703 0c-46.90944797 0-84.90272427 37.99211235-84.90272427 84.90039524L161.77422677 936.51478301zM314.60425273 745.48540075l394.7903306 0c25.88926521 0 46.70103893 20.7989669 46.70103893 46.6987099l0 76.40453461c0 25.90207203-20.81177373 46.70103893-46.70103893 46.70103893L314.60425273 915.28968419c-25.88926521 0-46.70103893-20.7989669-46.70103894-46.70103893l0-76.40453461C267.90321379 766.28436765 288.71498752 745.48540075 314.60425273 745.48540075z" p-id="2125" fill="#ffffff"></path></svg>