<svg class="icon" viewBox="0 0 1024 1024" xmlns="http://www.w3.org/2000/svg" width="64" height="64"><defs><style/></defs><path d="M161.774 936.515c0 46.91 37.995 84.903 84.903 84.903h530.644c46.91 0 84.902-37.993 84.902-84.903V172.388c0-46.91-37.994-84.9-84.902-84.9H671.19V49.282a46.57 46.57 0 0 0-46.7-46.7H399.507a46.57 46.57 0 0 0-46.701 46.7v38.204h-106.13c-46.908 0-84.902 37.992-84.902 84.9v764.129zm152.83-191.03h394.79a46.569 46.569 0 0 1 46.702 46.7v76.404a46.57 46.57 0 0 1-46.701 46.7h-394.79a46.57 46.57 0 0 1-46.702-46.7v-76.405a46.569 46.569 0 0 1 46.701-46.699z"/></svg>