<svg class="icon" viewBox="0 0 1024 1024" xmlns="http://www.w3.org/2000/svg" width="64" height="64"><defs><style/></defs><path d="M512.944 47.718c128.273 0 232.642 104.357 232.642 232.642 0 98.554-146.41 327.225-232.642 449.809-86.232-122.562-232.63-351.175-232.63-449.81 0-128.272 104.357-232.64 232.63-232.64m0-41.052c-151.153 0-273.692 122.539-273.692 273.693s273.692 520.01 273.692 520.01 273.693-368.856 273.693-520.01S664.11 6.667 512.944 6.667z"/><path d="M512.944 225.621c45.273 0 82.102 36.83 82.102 82.102s-36.83 82.102-82.102 82.102-82.102-36.83-82.102-82.102 36.83-82.102 82.102-82.102m0-41.05c-68.016 0-123.164 55.136-123.164 123.164s55.137 123.164 123.164 123.164c68.017 0 123.165-55.137 123.165-123.164S580.972 184.57 512.944 184.57zm-2.036 834.548l-80.362-69.575H47.411l84.56-292.853h197.177v41.051h-166.31l-60.848 210.75h343.86l65.058 56.31 65.024-56.31h343.87l-60.837-210.75h-166.32v-41.05h197.188l84.571 292.852H591.246z"/></svg>