<svg class="icon" viewBox="0 0 1024 1024" xmlns="http://www.w3.org/2000/svg" width="64" height="64"><defs><style/></defs><path d="M28.052999999999997 105.6a77.867 77.867 0 1 0 155.734 0 77.867 77.867 0 1 0-155.734 0zM840.427 326.933a77.867 77.867 0 1 0 155.733 0 77.867 77.867 0 1 0-155.733 0zM840.427 798.4a77.867 77.867 0 1 0 155.733 0 77.867 77.867 0 1 0-155.733 0zM142.827 909.333a77.867 77.867 0 1 0 155.733 0 77.867 77.867 0 1 0-155.733 0z"/><path d="M193.6 946.027L67.413 61.973l882.88 240.534v523.2L193.6 946.027zm-49.067-796.8l103.254 723.306 638.506-101.546V351.36l-741.76-202.133z"/></svg>