<svg class="icon" viewBox="0 0 1024 1024" xmlns="http://www.w3.org/2000/svg" width="64" height="64"><defs><style/></defs><path d="M380.018 824.206V411.08c0-6.371-2.048-11.719-6.144-15.815s-9.444-6.144-15.815-6.144h-44.032c-6.372 0-11.72 2.048-15.815 6.144-4.096 4.096-6.144 9.444-6.144 15.815v413.127c0 6.372 2.048 11.72 6.144 15.815 4.096 4.096 9.443 6.144 15.815 6.144h44.032c6.371 0 11.719-2.048 15.815-6.144s6.144-9.443 6.144-15.815zm176.014 0V411.08c0-6.371-2.048-11.719-6.144-15.815s-9.444-6.144-15.815-6.144H490.04c-6.372 0-11.72 2.048-15.815 6.144-4.096 4.096-6.144 9.444-6.144 15.815v413.127c0 6.372 2.048 11.72 6.144 15.815 4.096 4.096 9.443 6.144 15.815 6.144h44.032c6.371 0 11.719-2.048 15.815-6.144 3.982-4.096 6.144-9.443 6.144-15.815zm175.9 0V411.08c0-6.371-2.048-11.719-6.144-15.815s-9.443-6.144-15.815-6.144h-44.032c-6.371 0-11.719 2.048-15.815 6.144s-6.144 9.444-6.144 15.815v413.127c0 6.372 2.048 11.72 6.144 15.815 4.096 4.096 9.444 6.144 15.815 6.144h44.032c6.372 0 11.72-2.048 15.815-6.144 4.096-4.096 6.144-9.443 6.144-15.815zM358.06 177.835h307.88l-32.995-80.441c-3.186-4.096-7.054-6.6-11.72-7.51h-217.77c-4.551.91-8.42 3.414-11.72 7.51l-33.677 80.44zm637.724 21.959v55.75c0 6.372-2.048 11.72-6.144 15.816s-9.443 6.144-15.815 6.144h-65.991v604.388c0 38.001-10.809 70.883-32.313 98.645-21.504 27.762-47.445 41.529-77.71 41.529H226.076c-30.264 0-56.092-13.426-77.71-40.164-21.504-26.851-32.313-59.164-32.313-97.28V277.504h-65.99c-6.372 0-11.72-2.048-15.816-6.144s-6.144-9.444-6.144-15.815v-55.751c0-6.372 2.048-11.72 6.144-15.815 4.096-4.096 9.444-6.144 15.815-6.144h212.31l48.241-114.802c6.827-16.953 19.229-31.403 37.092-43.35C365.568 7.738 383.659 1.82 401.977 1.82h219.932c18.319 0 36.41 5.917 54.272 17.864 17.863 11.946 30.265 26.396 37.092 43.349L761.4 177.835h212.31c6.37 0 11.718 2.048 15.814 6.144 4.21 4.096 6.258 9.443 6.258 15.815z"/></svg>