<svg class="icon" viewBox="0 0 1024 1024" xmlns="http://www.w3.org/2000/svg" width="64" height="64"><defs><style/></defs><path d="M403 350.571H191.73c-11.392 0-20.712-9.32-20.712-20.713s9.32-20.712 20.712-20.712H403c11.392 0 20.712 9.32 20.712 20.712s-9.32 20.713-20.712 20.713zm95.796 254.118H191.73c-11.392 0-20.712-9.32-20.712-20.713s9.32-20.712 20.712-20.712h307.065c11.392 0 20.712 9.32 20.712 20.712s-9.32 20.713-20.712 20.713zm146.283 254.118H191.73c-11.392 0-20.712-9.32-20.712-20.713s9.32-20.712 20.712-20.712h453.35c11.391 0 20.712 9.32 20.712 20.712s-9.32 20.713-20.712 20.713zM740.098 478.6c-11.392 0-22.396-3.495-31.717-10.227l-104.34-75.083c-24.337-17.476-29.903-51.523-12.297-75.73L804.048 22.534A54.582 54.582 0 0 1 848.192.01c11.392 0 22.395 3.495 31.716 10.227l104.34 75.083c24.337 17.476 29.903 51.523 12.298 75.73L784.24 456.077a54.582 54.582 0 0 1-44.143 22.525zM848.192 41.435a12.94 12.94 0 0 0-10.486 5.308L625.402 341.768c-4.143 5.696-2.848 13.852 2.977 17.994l104.34 75.084c2.848 1.941 5.566 2.46 7.508 2.46a12.94 12.94 0 0 0 10.486-5.308l212.304-295.026c4.143-5.696 2.848-13.851-2.977-17.994L855.7 43.895a12.663 12.663 0 0 0-7.508-2.46z"/><path d="M580.61 558.862c-4.271 0-8.543-1.294-12.039-3.883-5.955-4.272-9.32-11.522-8.544-18.9l17.865-182.013c.777-7.379 5.308-13.722 12.04-16.829 6.73-3.107 14.627-2.33 20.582 2.072l148.743 106.54c5.955 4.272 9.32 11.521 8.544 18.9-.777 7.38-5.308 13.722-12.04 16.83l-166.607 75.6c-2.718 1.165-5.695 1.683-8.543 1.683zm34.953-165.053L604.69 504.492l101.233-45.956-90.359-64.727zm308.23-163.371c-4.143 0-8.415-1.295-12.04-3.884L772.591 126.487c-9.321-6.732-11.392-19.677-4.66-28.869 6.73-9.32 19.676-11.392 28.867-4.66l139.163 100.068c9.321 6.731 11.392 19.677 4.66 28.868-4.142 5.566-10.485 8.544-16.828 8.544z"/><path d="M827.997 561.58v406.097c0 8.415-6.861 15.147-15.146 15.147H108.62c-8.414 0-15.145-6.861-15.145-15.147V97.747c0-8.414 6.86-15.145 15.146-15.145h551.473c11.392 0 20.713-9.321 20.713-20.713s-9.32-20.713-20.713-20.713H108.622c-31.328 0-56.571 25.373-56.571 56.572v869.93c0 31.327 25.373 56.57 56.57 56.57h704.23c31.328 0 56.571-25.372 56.571-56.57V561.58c0-11.392-9.32-20.713-20.713-20.713s-20.712 9.191-20.712 20.713z"/></svg>