<svg class="icon" viewBox="0 0 1024 1024" xmlns="http://www.w3.org/2000/svg" width="64" height="64"><defs><style/></defs><path d="M17.067 2.844c-5.69 0-8.534 2.845-11.378 5.69C2.844 11.377 0 14.221 0 19.91V384c0 2.844 0 5.689 2.844 5.689h5.69l122.31-122.311 164.978 164.978c2.845 2.844 8.534 5.688 11.378 5.688 5.689 0 8.533-2.844 11.378-5.688L429.51 321.422c2.845-2.844 5.689-8.533 5.689-11.378 0-5.688-2.844-8.533-5.689-11.377L270.222 128 389.69 8.533c2.844-2.844 2.844-2.844 0-5.689C389.689 0 386.844 0 386.844 0L17.067 2.844zm0 1021.156c-5.69 0-8.534-2.844-11.378-5.689-2.845-2.844-5.689-8.533-5.689-11.378V640c0-2.844 0-5.689 2.844-5.689h5.69l122.31 122.311 164.978-164.978c2.845-2.844 8.534-5.688 11.378-5.688 5.689 0 8.533 2.844 11.378 5.688L429.51 702.578c2.845 2.844 5.689 8.533 5.689 11.378s-2.844 8.533-5.689 11.377L264.533 890.311 384 1009.778c2.844 2.844 2.844 2.844 0 5.689 0 2.844-2.844 2.844-5.689 2.844L17.067 1024zM1006.933 2.844c5.69 0 8.534 2.845 11.378 5.69 2.845 2.844 5.689 5.688 5.689 11.377V384c0 2.844 0 5.689-2.844 5.689h-5.69l-122.31-122.311-164.978 164.978c-2.845 2.844-8.534 5.688-11.378 5.688-5.689 0-8.533-2.844-11.378-5.688L594.49 321.422c-2.845-2.844-5.689-8.533-5.689-11.378 0-5.688 2.844-8.533 5.689-11.377l164.978-164.978L640 14.222c-2.844-2.844-2.844-2.844 0-5.689C634.311 0 637.156 0 637.156 0l369.777 2.844zm0 1021.156c5.69 0 8.534-2.844 11.378-5.689 2.845-2.844 5.689-8.533 5.689-11.378V640c0-2.844 0-5.689-2.844-5.689h-5.69l-122.31 122.311-164.978-164.978c-2.845-2.844-8.534-5.688-11.378-5.688-5.689 0-8.533 2.844-11.378 5.688L594.49 702.578c-2.845 2.844-5.689 8.533-5.689 11.378s2.844 8.533 5.689 11.377l164.978 164.978L640 1009.778c-2.844 2.844-2.844 2.844 0 5.689 0 2.844 2.844 2.844 5.689 2.844l361.244 5.689z"/></svg>