<svg class="icon" viewBox="0 0 1024 1024" xmlns="http://www.w3.org/2000/svg" width="64" height="64"><defs><style/></defs><path d="M891.145 138.338C817.897 63.072 720.092 20.844 615.763 19.432a377.593 377.593 0 0 0-5.132-.035c-54.537 0-110.51 12.093-161.867 34.968l-22.313 9.932 43.462 93.46 21.526-9.434c38.836-17.03 78.897-25.663 119.068-25.663l3.864.027c159.272 2.155 287.096 133.484 284.937 292.75-.566 41.505-10.31 82.616-28.947 122.197l-10.02 21.262 92.259 45.971 10.533-22.03c25.038-52.345 38.673-109.747 39.438-166.003 1.404-104.322-38.165-203.228-111.426-278.496z"/><path d="M680.52 537.875l94.118 45.298 9.986-22.815c16.22-37.069 24.11-70.925 24.11-103.501 0-136.048-109.86-246.727-244.899-246.727-37.423 0-74.225 8.512-106.451 24.614l-21.176 10.587 44.772 92.998 21.811-10.905c18.627-9.314 39.158-14.037 61.043-14.037 79.417 0 141.632 62.213 141.632 141.632 0 21.873-4.72 42.413-14.043 61.043l-10.902 21.813z"/><path d="M605.706 491.176c0-19.046-7.417-36.947-20.892-50.407-13.46-13.462-31.354-20.878-50.395-20.878-16.914 0-32.904 5.878-45.702 16.611l-235.39-235.377-2.031 3.063c-89.41 135.015-91.046 307.626-12.51 443.026L21.391 1001.726l391.528 2.877L297.363 797.11l43.786-31.804c73.87 58.668 164.66 90.595 260.4 90.595h.007c82.9 0 163.072-24.087 231.833-69.648l3.065-2.03-247.362-247.351c10.74-12.796 16.615-28.792 16.615-45.696z"/></svg>