<svg class="icon" viewBox="0 0 1024 1024" xmlns="http://www.w3.org/2000/svg" width="32" height="32"><defs><style/></defs><path d="M972.302 412.804L583.002 49.77c-19.674-22.421-48.14-35.28-78.256-35.39-29.676 0-58.032 12.75-76.937 33.962L52.797 412.473c-18.685 19.125-24.07 46.932-13.739 71.662 10.332 24.62 34.402 40.117 61.11 40.117h33.742V894.43c0 57.482 45.942 104.084 103.315 104.084h161.018c20.883 0 39.458-16.816 39.458-37.699V714.616c0-10.441 6.924-19.784 17.366-19.784h113.646c10.442 0 18.465 9.343 18.465 19.784v246.198c0 20.883 17.476 37.7 38.359 37.7h161.018c57.483 0 104.414-46.603 104.414-104.085V524.362h33.633c26.708 0 50.668-15.387 61-40.007 10.55-24.62 5.275-52.427-13.3-71.551z"/></svg>