<svg class="icon" viewBox="0 0 1185 1024" xmlns="http://www.w3.org/2000/svg" width="74.063" height="64"><defs><style/></defs><path d="M426.642 32h547.621c8.492 2.217 17.16 3.924 25.452 6.651 24.765 8.314 34.055 21.595 34.055 47.712 0 89.77.133 179.584-.2 269.31 0 9.423 1.863 12.77 12.017 12.504 28.423-.731 56.89.156 85.336-.487 9.6-.222 12.35 2.217 12.305 12.15-.4 106.752-.843 213.527.266 320.28.221 20.93-4.434 36.782-20.641 50.018-6.009 4.922-7.428 5.764-10.709-2.217-18.712-45.318-51.547-76.667-96.665-95.335-35.252-14.544-72.255-18.27-109.79-15.387-83.784 6.452-147.06 44.652-184.019 121.94-2.505 5.232-5.343 6.651-10.82 6.651q-92.54-.266-185.082 0c-6.651 0-9.312-1.973-11.55-8.402-16.63-46.958-47.868-80.813-93.65-100.656-52.147-22.615-106.421-22.681-160.94-11.884-53.365 10.576-97.817 36.05-128.724 82.697-6.85 10.354-6.65 27.116-19.62 30.818-12.284 3.525-26.384.421-39.665.931-6.34.244-9.91-2.217-13.524-7.161C49.56 740.293 42.864 727.08 32 717.081V493.155c3.946-2.217 4.434-6.652 6.075-10.066q71.634-153.223 142.847-306.58c4.057-8.668 8.624-11.484 18.158-11.484 56.824 0 113.626-.776 170.45-.975 7.937 0 10.797-1.995 10.575-10.531-.62-24.699-.266-49.441-.177-74.162 0-19.422 9.4-32.924 27.004-40.617 6.407-2.75 13.059-4.523 19.71-6.74zm-144.11 409.142c27.336 0 54.65-.2 82.032.133 7.382 0 10.353-1.663 10.309-9.755q-.488-81.434 0-162.846c0-7.826-2.483-10.043-10.132-9.977q-50.993.533-101.986 0c-6.94 0-10.42 1.84-12.793 8.758q-27.869 81.589-56.647 162.956c-3.547 9.933-.31 11.086 8.315 10.864 26.96-.355 53.92-.133 80.901-.133z"/><path d="M314.745 992c-77.199 0-140.164-62.19-140.497-138.768s63.143-140.186 140.431-140.208 140.785 63.342 140.497 140.142S391.922 992 314.746 992zm598.947-7.782c-79.26-1.33-140.341-64.296-139.078-143.357 1.22-76.002 65.737-136.794 143.557-135.243 76.578 1.486 138.657 65.338 136.972 140.874-1.73 77.421-64.961 138.99-141.45 137.726z"/></svg>