<svg class="icon" viewBox="0 0 1024 1024" xmlns="http://www.w3.org/2000/svg" width="64" height="64"><defs><style/></defs><path d="M877.673 26.074H156.04c-18.108 0-131.197 0-131.197 129.47v712.085c0 129.467 131.197 129.467 131.197 129.467h721.634c37.836 0 64.488-10.895 83.655-26.27 1.227-.901 2.46-1.804 3.62-2.774a107.773 107.773 0 0 0 11.952-12.044c1.023-1.216 1.87-2.498 2.814-3.781 28.939-37.372 29.155-84.597 29.155-84.597V155.545c.001-129.471-113.05-129.471-131.196-129.471zM163.635 923.599c-71.1.069-68.921-65.689-68.921-65.689v-30.918c29.504-26.267 121.738-108.608 161.753-148.134 5.17-5.064 12.308-11.9 20.148-11.102 8.267.034 15.825 7.147 15.899 7.147l2.635 2.536c.876.761 88.156 77.413 130.142 118.882 25.598 25.294 51.83 29.044 68.18 30.12 36.182-.455 60.163-24.326 60.34-24.742l67.905-58.336c6.998-6.52 13.538-5.2 23.314 4.413 25.388 25.088 113.192 115.654 171.667 176.1-153.03-.07-594.446-.277-653.062-.277zm769.843-63.329s-.176 36.75-28.621 54.378c-47.336-49.032-177.298-183.497-210.144-215.906-24.439-24.12-49.683-29.567-65.016-28.766-33.057.45-54.434 20.923-55.949 22.692l-68.007 58.474c-13.783 12.909-25.247 1.63-30.768-3.853-41.562-41.051-122.122-111.978-132.214-120.826-6.682-6.594-30.242-27.242-64.243-28.04-17.794-.865-44.728 4.686-71.806 31.406-25.212 24.878-73.563 68.878-112.03 103.475V159.948c.033-63.675 46.698-63.675 64.523-63.675h709.752c17.863 0 64.524 0 64.524 63.675V860.27z"/><path d="M680.823 223.417c-91.847 0-166.57 73.844-166.57 164.583 0 90.743 74.761 164.586 166.57 164.586 91.85 0 166.574-73.845 166.574-164.586 0-90.74-74.724-164.583-166.574-164.583zm0 259.767c-53.059 0-96.24-42.683-96.24-95.185 0-52.503 43.182-95.183 96.24-95.183 53.065 0 96.247 42.679 96.247 95.183 0 52.502-43.18 95.185-96.247 95.185z"/></svg>