<svg class="icon" viewBox="0 0 1024 1024" xmlns="http://www.w3.org/2000/svg" width="24" height="24"><defs><style/></defs><path d="M512 19.2C240 19.2 19.2 240 19.2 512S240 1004.8 512 1004.8 1004.8 784 1004.8 512 784 19.2 512 19.2zm0 900.8c-225.6 0-408-182.4-408-408s182.4-408 408-408c105.6 0 200 40 273.6 105.6l-99.2 99.2c-46.4-40-107.2-64-174.4-64-147.2 0-267.2 120-267.2 267.2 0 132.8 96 241.6 222.4 264 16 30.4 48 51.2 84.8 51.2 49.6 0 89.6-36.8 94.4-83.2 80-46.4 132.8-132.8 132.8-230.4 0-65.6-24-126.4-64-174.4l99.2-99.2C880 312 920 408 920 513.6c0 224-182.4 406.4-408 406.4zm40-284.8c-40 0-73.6 24-88 57.6C384 672 324.8 598.4 324.8 512c0-104 84.8-187.2 187.2-187.2 44.8 0 84.8 16 116.8 41.6l-94.4 94.4C528 457.6 520 456 512 456c-30.4 0-56 25.6-56 56s25.6 56 56 56 56-25.6 56-56c0-8-1.6-14.4-4.8-22.4l94.4-94.4c25.6 32 41.6 72 41.6 116.8 0 62.4-32 118.4-78.4 153.6-17.6-19.2-41.6-30.4-68.8-30.4z"/></svg>