<svg class="icon" viewBox="0 0 1024 1024" xmlns="http://www.w3.org/2000/svg" width="64" height="64"><defs><style/></defs><path d="M852.76 410.09H664.864V69.33c0-36.785-30.096-66.878-66.879-66.878H171.24c-36.782 0-66.879 30.093-66.879 66.878v885.34c0 36.785 30.096 66.878 66.879 66.878h681.52c36.782 0 66.878-30.093 66.878-66.878V476.969c.001-36.786-30.095-66.879-66.877-66.879zM320.92 817.73h-63.695V664.864h63.694v152.865zm0-254.775h-63.695V410.09h63.694v152.864zm0-254.773h-63.695V155.317h63.694V308.18zM512 817.729h-63.694V664.864H512v152.865zm0-254.775h-63.694V410.09H512v152.864zm0-254.773h-63.694V155.317H512V308.18z"/></svg>