<svg class="icon" viewBox="0 0 1024 1024" xmlns="http://www.w3.org/2000/svg" width="64" height="64"><defs><style/></defs><path d="M355.75 111.211V35.61H180.597v250.364c0 94.371-77.284 171.655-171.656 171.655v139.81h476.39V277.56c-74.177-18.77-129.583-86.475-129.583-166.348zM8.941 972.856c0 8.544 6.99 15.534 15.535 15.534h445.321c8.544 0 15.535-6.99 15.535-15.534V835.635H8.943v137.22zm0-321.046h476.39v129.454H8.943zm1006.116-194.18c-94.502 0-171.656-77.285-171.656-171.656V35.61H668.25v75.601c0 79.873-55.277 147.448-129.584 166.348v319.88h476.39V457.63zm-476.39 515.226c0 8.544 6.99 15.534 15.534 15.534h445.321c8.544 0 15.535-6.99 15.535-15.534V835.635h-476.39v137.22zm0-321.046h476.39v129.454h-476.39z"/></svg>