<svg class="icon" viewBox="0 0 1024 1024" xmlns="http://www.w3.org/2000/svg" width="64" height="64"><defs><style/></defs><path d="M510.158 297.111a256.553 256.553 0 0 0-256.552 256.532v315.14h516.747v-315.14a256.512 256.512 0 0 0-256.511-256.532zM212.331 450.752a41.807 41.807 0 0 0-32.742-49.112L58.608 377.267A41.828 41.828 0 0 0 9.495 410.01a42.257 42.257 0 0 0-.368 14.53 41.828 41.828 0 0 0 33.028 34.706l120.96 24.27a41.787 41.787 0 0 0 49.113-32.742zm-27.729-280.29l77.066 96.363a41.79 41.79 0 1 0 65.259-52.223L249.86 118.26a41.787 41.787 0 1 0-65.259 52.203zm332.616 36.446a41.766 41.766 0 0 0 42.77-40.784L559.7 42.769a41.807 41.807 0 0 0-83.574-2.046l.287 123.354a43.506 43.506 0 0 0 .45 7.326 41.807 41.807 0 0 0 40.354 35.423zm193.484 75.715a41.807 41.807 0 0 0 58.976-3.745l81.507-92.659a41.801 41.801 0 1 0-62.742-55.252l-81.527 92.64a41.746 41.746 0 0 0 3.786 58.975zm304.233 151.145a41.787 41.787 0 0 0-47.62-35.014l-121.983 18.56a41.793 41.793 0 1 0 12.585 82.633l121.963-18.56a41.807 41.807 0 0 0 35.034-47.62zM861.62 964.47a59.55 59.55 0 0 1-59.57 59.529H208.81a59.529 59.529 0 1 1 0-119.057h593.26a59.529 59.529 0 0 1 59.55 59.528zm0 0"/></svg>