<svg class="icon" viewBox="0 0 1024 1024" xmlns="http://www.w3.org/2000/svg" width="64" height="64"><defs><style/></defs><path d="M990.507 136.747C990.507 80.213 944.533 34.24 888 34.24S785.493 80.213 785.493 136.747c0 44.48 28.48 82.346 68.054 96.533v636.373c0 14.4-5.654 27.947-16 38.187-10.347 10.347-23.894 16-38.187 16H787.2c-14.4 0-27.947-5.653-38.187-16s-16-23.893-16-38.187l-.533-713.28c0-67.413-55.147-122.453-122.453-122.453h-9.494c-67.413 0-122.453 55.147-122.453 122.453l.533 710.4c0 14.4-5.653 27.947-16 38.187-10.346 10.347-23.893 16-38.186 16h-11.094c-14.4 0-27.946-5.653-38.186-16-10.347-10.347-16-23.893-16-38.187l.533-710.613c0-67.413-55.147-122.453-122.453-122.453h-12.054c-67.413 0-122.453 55.146-122.453 122.453v633.813c-40 13.974-68.8 52.054-68.8 96.854 0 56.533 45.973 102.506 102.507 102.506 56.533 0 102.506-45.973 102.506-102.506 0-44.374-28.373-82.347-68.053-96.534V156.267c0-14.4 5.653-27.947 16-38.187 10.347-10.347 23.893-16 38.187-16h12.053c14.4 0 27.947 5.653 38.187 16 10.346 10.347 16 23.893 16 38.187l-.534 710.613c0 67.413 55.147 122.453 122.454 122.453h11.093c67.413 0 122.453-55.146 122.453-122.453l-.533-710.4c0-14.4 5.653-27.947 16-38.187 10.347-10.346 23.893-16 38.187-16h9.493c14.4 0 27.947 5.654 38.187 16 10.346 10.347 16 23.894 16 38.187l.533 713.28c0 67.413 55.147 122.453 122.453 122.453h12.054c67.413 0 122.453-55.146 122.453-122.453V233.6c40.107-14.08 68.907-52.16 68.907-96.853zM136.213 921.173c-18.88 0-34.24-15.36-34.24-34.24s15.36-34.24 34.24-34.24 34.24 15.36 34.24 34.24-15.36 34.24-34.24 34.24zM888 170.987c-18.88 0-34.24-15.36-34.24-34.24s15.36-34.24 34.24-34.24c18.88 0 34.24 15.36 34.24 34.24s-15.36 34.24-34.24 34.24z"/></svg>