<?xml version="1.0" standalone="no"?><!DOCTYPE svg PUBLIC "-//W3C//DTD SVG 1.1//EN" "http://www.w3.org/Graphics/SVG/1.1/DTD/svg11.dtd"><svg t="1561023043661" class="icon" viewBox="0 0 1024 1024" version="1.1" xmlns="http://www.w3.org/2000/svg" p-id="4621" xmlns:xlink="http://www.w3.org/1999/xlink" width="16" height="16"><defs><style type="text/css"></style></defs><path d="M512 1010.66666667q-214.59375-4.921875-356.8359375-147.1640625T8 506.66666667q4.921875-214.59375 147.1640625-356.8359375T512 2.66666667q214.59375 4.921875 356.8359375 147.1640625T1016 506.66666667q-4.921875 214.59375-147.1640625 356.8359375T512 1010.66666667z m0-907.59375q-171.28125 4.921875-284.9765625 118.6171875T108.40625 506.66666667q0.984375 84.65625 32.484375 157.9921875T228.5 793.11979167l70.875-71.859375q-42.328125-41.34375-65.953125-95.9765625T209.796875 506.66666667q2.953125-128.953125 88.1015625-214.1015625T512 204.46354167q49.21875 0 93.515625 14.765625t81.703125 41.34375L537.59375 409.21354167q-11.8125-2.953125-25.59375-2.953125-43.3125 0.984375-71.3671875 29.0390625T412.578125 506.66666667q0 43.3125 28.0546875 71.3671875t70.875 28.0546875q42.8203125 0 71.3671875-28.0546875t29.53125-71.3671875q0-13.78125-2.953125-25.59375l148.640625-149.625q26.578125 37.40625 41.34375 81.703125t14.765625 93.515625q0 63-23.625 117.6328125T725.609375 720.27604167l71.859375 71.859375q55.125-56.109375 86.1328125-128.953125T915.59375 506.66666667q-4.921875-171.28125-118.6171875-284.9765625T512 103.07291667z" fill="#ffffff" p-id="4622"></path></svg>