<svg class="icon" viewBox="0 0 1024 1024" xmlns="http://www.w3.org/2000/svg" width="16" height="16"><defs><style/></defs><path d="M512 1010.667q-214.594-4.922-356.836-147.164T8 506.667q4.922-214.594 147.164-356.836T512 2.667Q726.594 7.589 868.836 149.83T1016 506.667q-4.922 214.593-147.164 356.836T512 1010.667zm0-907.594q-171.281 4.922-284.977 118.617T108.406 506.667q.985 84.656 32.485 157.992t87.609 128.46l70.875-71.859q-42.328-41.343-65.953-95.976t-23.625-118.617q2.953-128.953 88.101-214.102T512 204.464q49.219 0 93.516 14.765t81.703 41.344l-149.625 148.64Q525.78 406.26 512 406.26q-43.313.985-71.367 29.04t-28.055 71.367q0 43.312 28.055 71.367t70.875 28.055q42.82 0 71.367-28.055t29.531-71.367q0-13.782-2.953-25.594l148.64-149.625q26.579 37.406 41.345 81.703t14.765 93.516q0 63-23.625 117.632t-64.969 95.977l71.86 71.86q55.125-56.11 86.133-128.954t31.992-156.515q-4.922-171.282-118.617-284.977T512 103.073z"/></svg>