<svg class="icon" viewBox="0 0 1024 1024" xmlns="http://www.w3.org/2000/svg" width="64" height="64"><defs><style/></defs><path d="M897.117 147.596V53.953c0-24.186-19.225-43.411-43.41-43.411H177.735c-24.186 0-43.411 19.225-43.411 43.41v91.164c-44.031 16.744-75.04 58.914-75.04 108.527 0 63.876 52.094 115.97 115.97 115.97s115.97-52.094 115.97-115.97c0-47.752-29.148-88.682-70.078-106.667V97.364H472.31v550.698h-38.45c-22.945 0-41.55 17.365-43.41 40.31L373.704 915.97H258.356c-24.186 0-43.41 19.225-43.41 43.41s19.224 43.412 43.41 43.412h515.35c24.186 0 43.41-19.225 43.41-43.411s-19.224-43.411-43.41-43.411H659.597l-11.783-226.357c-1.24-22.946-20.465-40.93-43.41-40.93h-44.652V97.362h251.163v47.753c-44.65 16.744-75.659 58.914-75.659 108.527 0 63.876 52.093 115.97 115.97 115.97s115.969-52.094 115.969-115.97c0-47.752-29.148-88.682-70.078-106.047z"/></svg>