<svg class="icon" viewBox="0 0 1024 1024" xmlns="http://www.w3.org/2000/svg" width="64" height="64"><defs><style/></defs><path d="M246.577 560.687l-1.57-10.994h-86.381l3.14 15.706c23.56 146.061 142.921 265.423 288.982 288.981l15.706 3.141v-81.668l-10.994-1.57c-109.939-21.989-191.607-105.228-208.883-213.596zm1.57-97.374c20.417-106.798 102.086-190.037 207.313-212.025l10.994-1.57v-81.669l-15.706 3.141c-146.06 23.558-265.423 142.92-288.981 288.982l-3.141 15.705h86.38l3.141-12.564zm524.565-1.57l1.57 10.993h86.38l-3.14-15.705c-23.559-146.062-142.92-265.424-288.982-288.982l-15.706-3.141v86.38l10.994 1.57c108.368 23.56 190.037 105.228 208.884 208.884zm-76.957 56.54v-12.565c-6.283-97.374-83.24-172.76-180.614-172.76-50.258 0-95.804 18.846-131.926 54.968-34.552 34.553-54.97 83.24-54.97 131.927 0 100.515 83.24 182.184 186.896 182.184 98.945-3.141 180.614-83.24 180.614-183.755zM512 615.655c-56.54 0-100.515-43.975-100.515-100.515S455.46 414.626 512 414.626 612.515 458.6 612.515 515.14 568.54 615.656 512 615.656zm265.423-54.969C755.436 664.344 673.767 747.583 568.54 774.282l-9.423 3.141v80.098l15.705-3.14c146.061-23.559 265.423-142.92 288.982-288.982l3.14-15.706h-86.38l-3.14 10.994z"/><path d="M512 0C229.3 0 0 229.3 0 512s229.3 512 512 512 512-229.3 512-512S794.7 0 512 0zM78.528 512v-3.141V512zm469.595 431.902v-40.835c0-18.846-15.706-34.552-34.552-34.552-18.847 0-34.553 15.706-34.553 34.552v40.835c-212.024-17.276-381.644-185.325-398.92-397.35h42.405c18.847 0 34.552-15.705 34.552-34.552s-15.705-34.552-34.552-34.552H80.098c17.276-212.025 185.325-381.644 397.35-397.35v40.835c0 18.846 15.705 34.552 34.552 34.552s34.552-15.706 34.552-34.552V80.098c212.025 17.276 380.074 186.896 397.35 397.35h-39.264c-18.847 0-34.552 15.705-34.552 34.552s15.705 34.552 34.552 34.552h39.264c-17.276 210.454-185.325 380.074-395.78 397.35z"/></svg>