<?xml version="1.0" standalone="no"?><!DOCTYPE svg PUBLIC "-//W3C//DTD SVG 1.1//EN" "http://www.w3.org/Graphics/SVG/1.1/DTD/svg11.dtd"><svg t="1561030372191" class="icon" viewBox="0 0 1024 1024" version="1.1" xmlns="http://www.w3.org/2000/svg" p-id="4356" xmlns:xlink="http://www.w3.org/1999/xlink" width="16" height="16"><defs><style type="text/css"></style></defs><path d="M468.992 365.14133335c12.629333 2.730667 25.6 4.437333 39.253333 4.437333 13.312 0 26.624-1.365333 39.253334-4.437333 77.141333-17.749333 134.826667-87.04 134.826666-169.642667 0-95.914667-77.824-174.08-173.738666-174.08-95.914667 0-174.08 77.824-174.08 174.08 0 82.602667 57.344 151.893333 134.485333 169.642667z m0 0M720.896 360.36266635c0 49.152 26.282667 94.208 68.608 118.784 42.325333 24.576 94.890667 24.576 137.216 0 42.325333-24.576 68.608-69.973333 68.608-118.784 0-49.152-26.282667-94.549333-68.608-118.784-42.325333-24.576-94.890667-24.576-137.216 0-42.666667 24.234667-68.608 69.632-68.608 118.784z m0 0M891.221333 530.34666635H808.96c-11.946667 0-23.552 1.706667-34.816 4.437334v439.296h190.122667c33.109333 0 59.733333-26.624 59.733333-59.733334v-251.562666c0-73.045333-59.392-132.437333-132.778667-132.437334z m0 0M64.170667 457.30133335c53.589333 53.589333 140.629333 53.589333 194.218666 0 53.589333-53.589333 53.589333-140.629333 0-194.218667-53.589333-53.589333-140.629333-53.589333-194.218666 0-53.589333 53.930667-53.589333 140.629333 0 194.218667z m0 0M132.778667 530.34666635C59.392 530.34666635 0 589.73866635 0 663.12533335V914.34666635c0 33.109333 26.624 59.733333 59.733333 59.733334H242.346667V533.07733335c-8.874667-1.706667-18.090667-2.730667-27.306667-2.730667H132.778667z m0 0M692.224 973.05600035H330.069333c-21.162667 0-38.570667-17.408-38.570666-38.570667V580.86400035c0-87.04 70.656-158.037333 158.037333-158.037334h123.562667c87.04 0 158.037333 70.656 158.037333 158.037334V934.82666635c-0.341333 21.162667-17.408 38.229333-38.912 38.229334z m0 0" fill="#ffffff" p-id="4357"></path></svg>