<svg class="icon" viewBox="0 0 1024 1024" xmlns="http://www.w3.org/2000/svg" width="16" height="16"><defs><style/></defs><path d="M211.245 860.324h609.694V495.632c0-12.787 0-25.574-2.557-38.361-7.673-43.477-25.575-81.838-51.15-117.131-35.803-43.477-79.28-76.723-132.475-94.114-61.378-23.017-124.803-25.574-188.739-12.787-61.379 12.787-114.573 40.919-158.05 84.395-48.591 48.592-74.166 106.901-74.166 175.952v364.692c-2.557-3.07-2.557 2.046-2.557 2.046zM581.05 490.517c28.132-48.59 71.608-71.608 127.36-74.165v300.755c-53.706-2.558-96.67-23.017-124.803-69.051-33.246-52.683-33.246-106.39-2.557-157.539zm-262.394-73.654c56.264 2.558 99.23 25.575 127.361 71.609 30.69 53.706 30.69 106.9-2.557 160.607-28.132 46.034-71.609 66.493-124.804 69.05V416.864zm-183.624 515.07c-17.902 0-33.247 10.229-40.92 28.13s0 43.477 15.346 56.265c10.23 5.115 20.46 7.672 30.689 7.672H900.22c23.017-2.557 48.591-25.574 40.919-53.706-5.115-23.017-23.017-38.362-46.034-38.362h-33.247m-573.89-742.17c2.557 2.558 2.557 2.558 5.115 0 15.345-10.23 33.247-20.46 51.149-30.69 2.557-2.557 2.557-2.557 2.557-5.114-12.787-23.017-28.132-43.476-40.919-66.493-2.557-2.558-2.557-5.115-5.115-7.673-10.23-12.787-23.017-15.344-35.804-10.23s-23.017 17.903-23.017 33.247c0 5.115 2.558 12.787 5.115 17.902 12.787 23.017 25.574 46.034 40.919 69.051zM484.38 123.27h58.31c5.114 0 5.114 0 5.114-5.115V31.2c0-28.132-30.69-38.362-51.149-25.575-12.787 7.673-15.344 17.902-15.344 30.69v81.838c.511 5.115.511 5.115 3.069 5.115zm201.015 33.246c17.902 10.23 33.246 20.46 51.148 33.247h5.115c15.345-23.017 30.69-48.591 43.477-71.608 15.345-25.575-5.115-51.149-30.69-51.149h-5.114c-10.23 2.557-17.902 7.672-23.017 17.902-15.345 23.017-28.132 46.034-43.477 69.051 0 0 0 2.557 2.558 2.557zM152.424 347.812c10.23-17.902 20.46-33.247 30.689-51.149 0-2.557 0-2.557-2.558-5.115-23.017-12.787-46.034-28.131-69.05-40.919-2.558-2.557-5.115-2.557-7.673-5.115-5.115-2.557-7.672-2.557-12.787-2.557h-2.557c-23.017 2.557-38.362 30.69-25.575 51.149 2.558 5.115 7.672 10.23 12.787 12.787 23.017 12.787 46.034 28.132 69.051 40.92 5.115 2.557 5.115 2.557 7.673 0zm816.335-81.838c-5.115-15.345-17.902-23.017-33.247-23.017-7.672 0-12.787 2.557-20.46 7.672-23.016 12.788-46.033 28.132-69.05 40.92-2.557 2.557-2.557 2.557-2.557 5.114 10.23 15.345 20.46 33.247 30.689 48.592 2.557 5.115 2.557 5.115 5.115 2.557 20.46-12.787 38.361-23.017 58.82-35.804 5.116-2.557 10.23-5.115 15.346-10.23 15.344-7.672 20.46-20.46 15.344-35.804zm0 0"/></svg>