<svg class="icon" viewBox="0 0 1024 1024" xmlns="http://www.w3.org/2000/svg" width="16" height="16"><defs><style/></defs><path d="M996.936 340.777h-95.703c-4.593 0-8.766 1.347-12.519 3.435l-43.126-131.22C831.77 138.383 779.745 102.4 715.807 102.4H310.45c-73.4 0-117.96 48.317-129.787 110.54l-43.259 131.641c-3.942-2.32-8.391-3.804-13.26-3.804H28.39c-14.7 0-26.665 12.011-26.665 26.9v23.368c0 14.838 11.96 26.9 26.665 26.9l36.26 6.257c-11.453 22.585-17.991 48.41-17.991 78.454l-13.4 154.824c0 4.5.323 9.047.881 13.68a49.009 49.009 0 0 0-.88 8.72v186.255c0 26.527 21.33 47.995 47.575 47.995h72.611c26.246 0 47.524-21.468 47.524-47.995v-59.858h624.21v59.858c0 26.527 21.33 47.995 47.58 47.995h72.612c26.245 0 47.575-21.468 47.575-47.995V679.88c0-3.016-.374-5.94-.886-8.72.507-4.638.886-9.185.886-13.68l-13.45-154.824c0-30.141-6.533-55.967-18.033-78.643l35.472-6.073c14.7 0 26.613-12.057 26.613-26.9v-23.368c.052-14.884-11.914-26.895-26.613-26.895zM212.659 313.19l31.673-85.135.465-1.992c3.15-17.203 10.2-20.265 20.588-33.577h496.046c10.527 13.681 17.065 17.158 19.937 33.388l32.185 87.311 11.776 47.432c-2.642 34.734-43.96 62.131-78.362 62.131H279.245c-34.407 0-75.72-27.402-78.408-62.131l11.822-47.427zm22.21 404.844c-39.782 0-72.007-32.553-72.007-72.71 0-40.201 32.225-72.708 72.008-72.708s72.007 32.507 72.007 72.709c0 40.156-32.225 72.709-72.007 72.709zm402.295-53.647c0 11.96-9.6 21.611-21.474 21.611H413.67c-11.827 0-21.422-9.646-21.422-21.611v-60.79c0-11.92 9.6-21.56 21.422-21.56h202.025a21.504 21.504 0 0 1 21.469 21.56v60.79zm154.173 53.647c-39.782 0-72.054-32.553-72.054-72.71 0-40.201 32.272-72.708 72.054-72.708s72.008 32.507 72.008 72.709c0 40.156-32.226 72.709-72.008 72.709zm0 0"/></svg>