<svg class="icon" viewBox="0 0 1024 1024" xmlns="http://www.w3.org/2000/svg" width="24" height="24"><defs><style/></defs><path d="M952.88 361.787v-144.48H990c20.4 0 34-14.32 34-35.92s-13.6-36.08-34-36.08H34c-20.4 0-34 14.48-34 36.08s13.6 35.92 34 35.92h34.72v144.8A80 80 0 0 0 0 441.227v344a80 80 0 0 0 80 80h49.68a32 32 0 0 0 31.36-25.52 360 360 0 0 1 702.08 0 32 32 0 0 0 31.36 25.52H952a80 80 0 0 0 72-80v-344a80 80 0 0 0-71.12-79.44zm-680-.56h-136v-144h136zm204 0h-136v-144h136zm204.08 0h-136v-144h136zm204 0h-136v-144h136z"/></svg>