<svg class="icon" viewBox="0 0 1024 1024" xmlns="http://www.w3.org/2000/svg" width="24" height="24"><defs><style/></defs><path d="M128 609.92h26.88v250.56a232.32 232.32 0 0 0 147.84 0V615.04l24.64-2.24v-39.04H128zm580.16-64h21.12v118.4a71.36 71.36 0 0 1-78.08 73.6 72 72 0 0 1-72-82.88S576 352 571.52 326.4c-5.12-41.6-32-175.68-203.2-174.4A200 200 0 0 0 160 330.88a1122.56 1122.56 0 0 0-4.16 139.84H128v37.44h187.52V473.6h-20.8V358.4a71.36 71.36 0 0 1 78.08-73.6 72 72 0 0 1 72 82.88S448 672 452.48 697.6c5.12 41.6 32 175.68 203.2 174.4A200 200 0 0 0 864 693.12a1170.88 1170.88 0 0 0 4.16-143.04H896V512H708.48zm160-133.12V163.52a232.32 232.32 0 0 0-147.84 0v245.44l-24.64 2.24v39.04H896v-36.16z"/></svg>