<svg class="icon" viewBox="0 0 1024 1024" xmlns="http://www.w3.org/2000/svg" width="16" height="16"><defs><style/></defs><path d="M468.992 365.141c12.63 2.731 25.6 4.438 39.253 4.438 13.312 0 26.624-1.366 39.254-4.438 77.141-17.749 134.826-87.04 134.826-169.642 0-95.915-77.824-174.08-173.738-174.08-95.915 0-174.08 77.824-174.08 174.08 0 82.602 57.344 151.893 134.485 169.642zm251.904-4.778c0 49.152 26.283 94.208 68.608 118.784 42.325 24.576 94.89 24.576 137.216 0 42.325-24.576 68.608-69.974 68.608-118.784 0-49.152-26.283-94.55-68.608-118.784-42.325-24.576-94.89-24.576-137.216 0-42.667 24.234-68.608 69.632-68.608 118.784zm170.325 169.984H808.96c-11.947 0-23.552 1.706-34.816 4.437V974.08h190.123c33.109 0 59.733-26.624 59.733-59.733V662.784c0-73.045-59.392-132.437-132.779-132.437zM64.171 457.3c53.589 53.59 140.629 53.59 194.218 0 53.59-53.589 53.59-140.629 0-194.218-53.589-53.59-140.629-53.59-194.218 0-53.59 53.93-53.59 140.629 0 194.218zm68.608 73.046C59.392 530.347 0 589.739 0 663.125v251.222c0 33.109 26.624 59.733 59.733 59.733h182.614V533.077c-8.875-1.706-18.091-2.73-27.307-2.73h-82.261zm559.445 442.709H330.069c-21.162 0-38.57-17.408-38.57-38.57V580.863c0-87.04 70.656-158.037 158.037-158.037h123.563c87.04 0 158.037 70.656 158.037 158.037v353.963a38.754 38.754 0 0 1-38.912 38.229zm0 0"/></svg>