<svg class="icon" viewBox="0 0 1024 1024" xmlns="http://www.w3.org/2000/svg" width="64" height="64"><defs><style/></defs><path d="M372.364 651.636V465.455h65.815L554.543 349.09h120.366v217.39a140.032 140.032 0 0 0-85.155 85.155h-217.39zm-93.091 0H93.09v93.091h186.182V930.91h93.09V744.727h217.391A139.636 139.636 0 1 0 768 566.481v-217.39h162.91V256H768V93.09h-93.09V256H516.002L399.639 372.364H186.182v93.09h93.09v186.182zM0 0h1024v1024H0V0zm721.455 744.727a46.545 46.545 0 1 1 0-93.09 46.545 46.545 0 0 1 0 93.09z"/></svg>