<svg class="icon" viewBox="0 0 1024 1024" xmlns="http://www.w3.org/2000/svg" width="24" height="24"><defs><style/></defs><path d="M587.85 1023.984s301.416-25.107 348.914-341.328c.007-213.027-174.457-333.743-174.457-333.743s-35.877 64.405-75.85 83.436C686.775 435.246 794.43 144.056 436.149 0c-.424 5.416 16.164 76.465 15.17 106.19-.993 29.727-25.872 164.02-159.286 265.478S89.421 546.238 87.236 682.656c-2.184 136.417 72.771 283.507 333.743 341.328-.212 1.608-106.039-117.106-106.19-250.307-.152-133.202 127.368-221.34 189.626-257.893-1.373-.417-6.789 23.135-7.585 60.68-.797 37.547 22.778 104.364 68.265 144.117 45.488 39.754 84.05 104.105 83.436 144.116-.614 40.012-31.85 120.914-60.68 159.287z"/></svg>