<svg class="icon" viewBox="0 0 1185 1024" xmlns="http://www.w3.org/2000/svg" width="20.83" height="18"><defs><style/></defs><path d="M916.114 453.26V22.149l269.445 125.67V578.93zm-107.778-76.037a215.556 215.556 0 1 0-431.113 0 378.948 378.948 0 0 0 4.096 53.89h-57.985V0h538.891v431.113h-57.93a378.948 378.948 0 0 0 4.041-53.89zM0 153.368L269.445 25.867v438.98L0 592.35zM485.002 726.64v-91.288s-177.834-274.834 34.866-403.629a177.08 177.08 0 0 1 146.2 0c212.54 128.525 34.867 403.63 34.867 403.63v91.287c285.612 116.562 322.742 183.816 322.742 183.816v113.436H162.098V910.456s37.292-67.308 322.904-183.816z"/></svg>