<svg class="icon" viewBox="0 0 1024 1024" xmlns="http://www.w3.org/2000/svg" width="16" height="16"><defs><style/></defs><path d="M952.473 41.161H72.282c-37.43 0-68.056 30.625-68.056 68.056V914.71c0 37.43 30.625 68.056 68.056 68.056h880.191c37.431 0 68.056-30.625 68.056-68.056V109.217c0-37.43-30.625-68.056-68.056-68.056zM439.126 762.24V470.73L691.58 616.484 439.126 762.24zm543.68-416.112H43.552v-72.593h115.551L77.234 113.872h67.94l81.869 159.663h116.764l-81.869-159.663h65.671l81.87 159.663h111.187l-81.87-159.663h65.671l81.87 159.663h115.058l-81.869-159.663h65.67l81.87 159.663h110.466l-81.869-159.663h69.074l81.869 159.663h36.2v72.593z"/></svg>