<svg class="icon" viewBox="0 0 1024 1024" xmlns="http://www.w3.org/2000/svg" width="24" height="24"><defs><style/></defs><path d="M853.333 101.333A42.667 42.667 0 0 0 810.666 144H256a85.333 85.333 0 0 0-85.333 85.333V400a42.667 42.667 0 1 0 0 85.334H384A42.667 42.667 0 0 0 384 400v-42.667h426.667a42.667 42.667 0 0 0 85.333 0V144a42.667 42.667 0 0 0-42.667-42.667zm0 524.8A133.12 133.12 0 0 0 748.8 570.666a132.693 132.693 0 0 0-104.96 57.6C625.92 649.173 618.667 656 603.733 656s-22.613-6.827-40.106-27.307a132.267 132.267 0 0 0-104.96-58.026 131.413 131.413 0 0 0-104.96 58.027C335.787 649.174 328.96 656 313.6 656s-22.186-6.826-40.106-27.306a131.413 131.413 0 0 0-102.827-58.027V656c15.36 0 22.187 6.827 40.107 27.734A132.267 132.267 0 0 0 313.6 741.333 132.267 132.267 0 0 0 418.56 681.6c17.92-20.907 24.747-27.734 40.107-27.734s22.186 6.827 39.68 27.734a132.267 132.267 0 0 0 105.387 59.733 132.267 132.267 0 0 0 104.96-57.6C726.614 662.826 733.44 656 748.8 656s22.187 6.826 40.107 27.733A132.267 132.267 0 0 0 896 741.333V656c-17.493 0-24.32-8.96-42.667-29.867zm0 170.667A133.12 133.12 0 0 0 748.8 741.333a132.693 132.693 0 0 0-104.96 57.6c-17.92 20.907-25.173 27.734-40.107 27.734s-22.613-6.827-40.106-27.307a132.267 132.267 0 0 0-104.96-58.027 131.413 131.413 0 0 0-104.96 58.027c-17.92 20.48-24.747 27.306-40.107 27.306s-22.186-6.826-40.106-27.306a131.413 131.413 0 0 0-102.827-58.027v85.333c15.36 0 22.187 6.827 40.107 27.734A132.267 132.267 0 0 0 313.6 912a132.267 132.267 0 0 0 104.96-59.733c17.92-20.907 24.747-27.734 40.107-27.734s22.186 6.827 39.68 27.734A132.267 132.267 0 0 0 603.734 912a132.267 132.267 0 0 0 104.96-57.6c17.92-20.907 24.746-27.733 40.106-27.733s22.187 6.826 40.107 27.733A132.267 132.267 0 0 0 896 912v-85.333c-17.493 0-24.32-8.96-42.667-29.867z"/></svg>