<svg class="icon" viewBox="0 0 1024 1024" xmlns="http://www.w3.org/2000/svg" width="16" height="16"><defs><style/></defs><path d="M1020.153 880.594l-26.449-122.115-239.727 50.084 26.45 122.114c4.501 21.384 26.448 35.453 48.395 30.95l159.817-33.2c22.51-5.065 36.578-25.887 31.514-47.833zM891.848 289.718L651.56 339.24l93.415 429.37L984.7 719.088zM849.08 93.323c-4.502-21.384-26.448-35.453-48.395-30.95l-159.818 33.2c-21.947 4.503-36.015 25.887-31.513 47.27l25.886 117.613 239.726-50.084-25.886-117.05zM315.604 919.985c0 21.947 18.57 39.955 41.08 39.955H509.75c22.51 0 41.08-18.008 41.08-39.955V802.373H315.604v117.612zm0-621.263h234.662v429.932H315.604zM509.75 63.498H356.684c-22.51 0-41.08 18.007-41.08 39.954v117.05h234.662v-117.05c.563-21.947-18.007-39.954-40.517-39.954zM2.722 919.985c0 21.947 18.007 39.955 41.08 39.955h153.065c22.51 0 41.08-18.008 41.08-39.955V802.373H2.721v117.612zm0-621.263h234.662v429.932H2.722zm234.662-195.27c0-21.947-18.57-39.954-40.517-39.954H43.802c-22.51 0-41.08 18.007-41.08 39.954v117.05h234.662v-117.05z"/></svg>