<svg class="icon" viewBox="0 0 1024 1024" xmlns="http://www.w3.org/2000/svg" width="32" height="32"><defs><style/></defs><path d="M227.706 831.31v-23.906c0-6.599-5.352-11.952-11.952-11.952H48.42c-6.602 0-11.952 5.352-11.952 11.952v23.905c0 6.6 5.35 11.952 11.952 11.952h167.335c6.6 0 11.951-5.353 11.951-11.952zM48.42 221.733h167.335c6.6 0 11.952-5.35 11.952-11.952v-23.905c0-6.6-5.352-11.954-11.952-11.954H48.42c-6.602 0-11.952 5.354-11.952 11.954v23.905c0 6.603 5.35 11.952 11.952 11.952zm0 310.764h167.335c6.6 0 11.952-5.351 11.952-11.954V496.64c0-6.599-5.352-11.952-11.952-11.952H48.42c-6.602 0-11.952 5.352-11.952 11.952v23.905c0 6.604 5.35 11.954 11.952 11.954zM944.855 30.495H179.897c-26.406 0-47.81 21.405-47.81 47.81v47.81h119.526c13.202 0 23.904 10.705 23.904 23.906v95.619c0 13.202-10.703 23.904-23.904 23.904H132.087v167.335h119.526c13.202 0 23.904 10.702 23.904 23.904v95.619c0 13.204-10.703 23.905-23.904 23.905H132.087v167.334h119.526c13.202 0 23.904 10.704 23.904 23.905v95.62c0 13.203-10.703 23.904-23.904 23.904H132.087v47.81c0 26.406 21.403 47.811 47.81 47.811h764.956c26.406 0 47.811-21.404 47.811-47.81V78.303c0-26.404-21.404-47.809-47.81-47.809zM786.838 662.198c-5.751 4.772-17.53 11.658-18.857 12.423l-2.254 1.304H430.743l-2.254-1.304c-1.325-.765-13.12-7.652-18.871-12.433-9.476-7.862-14.578-18.909-14.35-31.096l.043-3.266c.058-6.548.127-13.326 1.956-20.234 4.295-16.268 16.359-26.814 28.35-36.234 15.69-12.339 34.237-22.81 60.125-33.94 12.33-5.3 25.503-10.386 40.287-15.514 6.335-2.2 12.949-9.092 16.852-17.536 3.086-6.68 4.002-13.342 2.507-18.027l-.72-.85c-17.58-21.323-31.558-40.242-38.177-73.08-5.325-26.38-4.56-51.304 2.266-74.08 10.463-34.918 33.047-57.617 65.311-65.65 4.87-1.214 9.602-2.069 14.293-2.57v-.539l19.745-.03v.567c4.687.502 9.428 1.355 14.304 2.574 32.256 8.03 54.837 30.728 65.305 65.647 6.814 22.77 7.581 47.69 2.271 74.073-6.638 32.849-20.611 51.771-38.186 73.088l-.642.754c-.03.03-.046.057-.065.087-1.5 4.734-.583 11.373 2.498 18.036 3.904 8.455 10.514 15.336 16.849 17.529 14.74 5.13 27.912 10.203 40.291 15.52 25.882 11.13 44.418 21.601 60.126 33.941 11.458 9.003 24.044 19.966 28.345 36.248 1.82 6.876 1.886 13.641 1.952 20.18l.046 3.306c.225 12.188-4.877 23.235-14.362 31.106z"/></svg>