<svg class="icon" viewBox="0 0 1024 1024" xmlns="http://www.w3.org/2000/svg" width="24" height="24"><defs><style/></defs><path d="M400 739.2c0-38.4-28.8-67.2-67.2-67.2H320V128h192c0 35.2 28.8 64 64 64h320c35.2 0 64-28.8 64-64s-28.8-64-64-64H256v608h-12.8c-35.2 0-67.2 28.8-67.2 64l-12.8 160H64v64h448v-64h-99.2L400 739.2z"/><path d="M582.4 256c-16-9.6-35.2-3.2-41.6 12.8L512 326.4c-9.6 16-3.2 35.2 12.8 41.6 16 9.6 35.2 3.2 41.6-12.8l28.8-57.6c9.6-16 3.2-35.2-12.8-41.6zm339.2 12.8c-6.4-16-25.6-22.4-41.6-12.8-16 9.6-22.4 28.8-12.8 41.6l28.8 57.6c9.6 16 28.8 22.4 41.6 12.8 16-9.6 22.4-28.8 12.8-41.6l-28.8-57.6zm-188.8 32c-19.2 0-32 12.8-32 32v64c0 19.2 12.8 32 32 32s32-12.8 32-32v-64c0-19.2-12.8-32-32-32z"/></svg>