<svg class="icon" viewBox="0 0 1024 1024" xmlns="http://www.w3.org/2000/svg" width="64" height="64"><defs><style/></defs><path d="M911.552 33.894a49.944 49.944 0 0 0-49.944 49.944H212.336a99.888 99.888 0 0 0-99.888 99.888V383.5a49.944 49.944 0 1 0 0 99.888h249.72a49.944 49.944 0 0 0 0-99.888v-49.944h499.44a49.944 49.944 0 0 0 99.888 0V83.837a49.944 49.944 0 0 0-49.944-49.943zm0 614.31a155.825 155.825 0 0 0-122.363-64.927 155.326 155.326 0 0 0-122.862 67.425c-20.977 24.472-29.467 32.463-46.947 32.463s-26.47-7.99-46.948-31.964a154.826 154.826 0 0 0-122.862-67.924 153.827 153.827 0 0 0-122.862 67.924c-20.977 23.973-28.968 31.964-46.947 31.964s-25.971-7.99-46.948-31.964a209.265 209.265 0 0 0-54.938-49.944 46.448 46.448 0 0 0-65.427 37.958v9.489a49.944 49.944 0 0 0 22.475 38.956 174.804 174.804 0 0 1 24.473 25.472 154.826 154.826 0 0 0 120.365 69.921 154.826 154.826 0 0 0 122.862-69.921c20.976-24.473 28.967-32.464 46.947-32.464s25.97 7.991 46.448 32.464a154.826 154.826 0 0 0 123.362 69.921 154.826 154.826 0 0 0 122.862-67.424c20.976-24.473 28.967-32.464 46.947-32.464s25.97 7.991 46.947 32.464a203.771 203.771 0 0 0 55.438 49.944 45.449 45.449 0 0 0 69.922-42.952v-9.49a49.944 49.944 0 0 0-22.475-39.455 175.303 175.303 0 0 1-27.47-25.472zm0 199.776a155.825 155.825 0 0 0-122.363-64.927 155.326 155.326 0 0 0-122.862 67.424c-20.977 24.473-29.467 32.464-46.947 32.464s-26.47-7.991-46.948-31.964a154.826 154.826 0 0 0-122.862-67.924 153.827 153.827 0 0 0-122.862 67.924C305.73 874.95 297.74 882.94 279.76 882.94s-25.971-7.991-46.948-31.964a209.265 209.265 0 0 0-54.938-49.944 46.448 46.448 0 0 0-65.427 37.957v9.49a49.944 49.944 0 0 0 22.475 38.956 174.804 174.804 0 0 1 24.473 25.471A154.826 154.826 0 0 0 279.76 982.83a154.826 154.826 0 0 0 122.862-69.922c20.976-24.472 28.967-32.463 46.947-32.463s25.97 7.99 46.448 32.463A154.826 154.826 0 0 0 619.38 982.83a154.826 154.826 0 0 0 122.862-67.424c20.976-24.473 28.967-32.464 46.947-32.464s25.97 7.991 46.947 32.464a203.771 203.771 0 0 0 55.438 49.944 45.449 45.449 0 0 0 69.922-42.952v-9.49a49.944 49.944 0 0 0-22.475-39.455 175.303 175.303 0 0 1-27.47-25.472z"/></svg>