<svg class="icon" viewBox="0 0 1024 1024" xmlns="http://www.w3.org/2000/svg" width="64" height="64"><defs><style/></defs><path d="M982.699 838.428l-86.244-86.357-45.511 45.511-113.436-113.436c158.606-171.577 255.658-401.18 255.658-653.312-252.131 0-481.735 97.052-653.312 255.772L228.352 175.104l45.511-45.511-86.243-86.357c-39.823-39.823-104.335-39.823-144.043 0-39.822 39.822-39.822 104.334 0 144.042l86.357 86.358 45.511-45.512 111.389 111.389c-158.834 171.577-256 401.294-256 653.54 252.245 0 481.962-97.053 653.54-256L797.81 850.488 752.299 896l86.357 86.357c39.822 39.823 104.334 39.823 144.043 0 39.822-39.594 39.822-104.106 0-143.929zM470.585 676.75L347.477 553.643c-5.347-5.348-5.347-13.995 0-19.343l187.051-187.05c5.348-5.348 13.995-5.348 19.342 0l123.108 123.107c5.347 5.348 5.347 13.995 0 19.343l-187.05 187.05c-5.348 5.234-13.996 5.234-19.343 0z"/></svg>