<svg class="icon" viewBox="0 0 1031 1024" xmlns="http://www.w3.org/2000/svg" width="64.438" height="64"><defs><style/></defs><path d="M646.4 654.933a42.667 42.667 0 0 1-31.147-14.08A1574.827 1574.827 0 0 0 493.227 518.4a256 256 0 1 1 306.773 0A1574.827 1574.827 0 0 0 677.973 640a42.667 42.667 0 0 1-31.573 14.933zm0-512a170.667 170.667 0 0 0-101.973 307.2A1136.213 1136.213 0 0 1 646.4 549.547a1194.667 1194.667 0 0 1 102.4-99.414 170.667 170.667 0 0 0-102.4-307.2z"/><path d="M646.4 377.6a64 64 0 1 1 64-64 64.427 64.427 0 0 1-64 64zm0-85.333a21.333 21.333 0 0 0-21.333 21.333 21.76 21.76 0 0 0 21.333 21.333 21.333 21.333 0 0 0 21.333-21.333 21.333 21.333 0 0 0-21.333-21.333zM305.067 819.2a19.627 19.627 0 0 1-15.36-8.533 1014.187 1014.187 0 0 0-76.374-75.947 154.88 154.88 0 1 1 185.6 0 1014.187 1014.187 0 0 0-78.08 75.947 20.053 20.053 0 0 1-15.786 8.533zm0-320a111.787 111.787 0 0 0-66.987 201.387A791.893 791.893 0 0 1 305.067 768a860.16 860.16 0 0 1 67.413-65.707A111.787 111.787 0 0 0 305.067 499.2z"/><path d="M305.067 659.2a48.213 48.213 0 1 1 48.213-48.213 48.213 48.213 0 0 1-48.213 48.213zm0-53.333a5.12 5.12 0 0 0-5.12 5.12c0 5.973 10.666 5.973 10.666 0a5.12 5.12 0 0 0-5.546-5.12zm682.666 343.04a42.667 42.667 0 0 1-22.613-6.4L644.267 741.973l-320 160a42.667 42.667 0 0 1-32.427 2.134l-256-85.334a42.667 42.667 0 0 1 26.88-80.64l239.36 79.787 325.547-162.987a42.667 42.667 0 0 1 42.666 2.134L1011.627 870.4a42.667 42.667 0 0 1-22.614 78.507z"/></svg>