<svg class="icon" viewBox="0 0 1024 1024" xmlns="http://www.w3.org/2000/svg" width="64" height="64"><defs><style/></defs><path d="M384.089 192.247H226.932c-9.968 0-19.547 4.143-26.15 11.521L34.434 386.558c-7.379 8.155-11.521 18.77-11.521 29.644v298.262c0 8.544 6.99 15.534 15.534 15.534h19.03c6.861-73.918 68.87-131.654 144.6-131.654s137.739 57.866 144.6 131.654h37.412c8.544 0 15.534-6.99 15.534-15.534V207.78c0-8.543-6.99-15.534-15.534-15.534zm-36.765 270.04c0 5.179-4.272 9.45-9.45 9.45H126.217c-5.178 0-9.45-4.271-9.45-9.45v-66.02c0-6.732 2.46-13.205 6.99-18.124l101.751-111.848c4.143-4.531 9.968-7.12 16.052-7.12h96.185c5.178 0 9.45 4.272 9.45 9.45v193.663z"/><path d="M107.576 737.118a94.501 94.501 0 1 0 189.002 0 94.501 94.501 0 1 0-189.002 0zm595.487 0a94.501 94.501 0 1 0 189.003 0 94.501 94.501 0 1 0-189.003 0z"/><path d="M438.977 487.272v183.954c0 33.14 27.056 60.196 60.196 60.196h153.792c6.86-73.918 68.869-131.654 144.6-131.654 75.6 0 137.738 57.866 144.6 131.654 31.845-1.424 57.347-27.962 57.347-60.066V487.272H438.977zm560.535-44.662c-35.34 0-53.852-14.498-67.315-25.113-9.968-7.897-14.111-11.133-26.539-11.133-12.557 0-16.829 3.236-26.926 11.262-13.334 10.486-31.716 24.985-66.41 24.985-34.823 0-53.853-15.146-66.539-25.114-9.838-7.768-13.981-11.133-26.02-11.133-12.816 0-18.124 4.013-28.61 11.91-13.592 10.226-32.363 24.337-65.244 24.337-33.011 0-51.782-14.11-65.633-24.467-10.486-7.897-15.794-11.78-28.092-11.78-11.91 0-16.7 3.624-26.926 11.521-13.722 10.486-32.493 24.726-66.41 24.726v-64.727c12.04 0 16.829-3.625 27.185-11.522 13.722-10.485 32.493-24.725 66.151-24.725 33.788 0 52.817 14.24 66.798 24.725 10.616 7.897 15.405 11.522 26.797 11.522 11.263 0 15.923-3.495 26.28-11.263 13.98-10.485 33.14-24.984 67.574-24.984 34.564 0 53.594 15.146 66.28 25.114 9.969 7.896 13.982 11.133 26.28 11.133 12.168 0 16.311-3.237 26.408-11.133 13.464-10.615 31.975-25.114 66.928-25.114 34.823 0 53.206 14.37 66.54 24.984 10.097 8.026 14.369 11.263 27.314 11.263v64.727zm0-136.444c-35.34 0-53.852-14.498-67.315-25.114-9.968-7.896-14.111-11.133-26.539-11.133-12.557 0-16.829 3.237-26.926 11.263-13.334 10.486-31.716 24.984-66.41 24.984-34.823 0-53.853-15.146-66.539-25.114-9.838-7.767-13.981-11.133-26.02-11.133-12.816 0-18.124 4.013-28.61 11.91-13.592 10.227-32.363 24.337-65.244 24.337-33.011 0-51.782-14.11-65.633-24.466-10.486-7.897-15.794-11.78-28.092-11.78-11.91 0-16.7 3.624-26.926 11.52-13.722 10.486-32.493 24.726-66.41 24.726V241.44c12.04 0 16.829-3.624 27.185-11.52 13.722-10.487 32.493-24.727 66.151-24.727 33.788 0 52.817 14.24 66.798 24.726 10.616 7.897 15.405 11.521 26.797 11.521 11.263 0 15.923-3.495 26.28-11.262 13.98-10.486 33.14-24.985 67.574-24.985 34.564 0 53.594 15.147 66.28 25.114 9.969 7.897 13.982 11.133 26.28 11.133 12.168 0 16.311-3.236 26.408-11.133 13.464-10.615 31.975-25.114 66.928-25.114 34.823 0 53.206 14.37 66.54 24.985 10.097 8.026 14.369 11.262 27.314 11.262v64.727z"/></svg>