<svg class="icon" viewBox="0 0 1024 1024" xmlns="http://www.w3.org/2000/svg" width="64" height="64"><defs><style/></defs><path d="M61.719 874.333c0 41.438 33.562 75 75 75h750c41.437 0 75-33.562 75-75v-206.25c0-41.437-33.563-75-75-75H562.344V396.208c0-25.875-21-46.875-46.875-46.875s-46.875 21-46.875 46.875v196.875H136.719c-41.438 0-75 33.563-75 75v206.25zm93.75-103.125c0-25.875 21-46.875 46.875-46.875s46.875 21 46.875 46.875-21 46.875-46.875 46.875-46.875-21-46.875-46.875zm168.75 0c0-25.875 21-46.875 46.875-46.875s46.875 21 46.875 46.875-21 46.875-46.875 46.875-46.875-21-46.875-46.875zm191.25-571.875c-108.75 0-196.875 88.125-196.875 196.875 0 25.875 21 46.875 46.875 46.875s46.875-21 46.875-46.875c0-57 46.125-103.125 103.125-103.125s103.125 46.125 103.125 103.125c0 25.875 21 46.875 46.875 46.875s46.875-21 46.875-46.875c0-108.75-88.125-196.875-196.875-196.875zm0-150c-191.625 0-346.875 155.25-346.875 346.875 0 25.875 21 46.875 46.875 46.875s46.875-21 46.875-46.875c0-139.875 113.25-253.125 253.125-253.125s253.125 113.25 253.125 253.125c0 25.875 21 46.875 46.875 46.875s46.875-21 46.875-46.875c0-191.625-155.25-346.875-346.875-346.875z"/></svg>