<svg class="icon" viewBox="0 0 1024 1024" xmlns="http://www.w3.org/2000/svg" width="16" height="16"><defs><style/></defs><path d="M512 341.333c-70.4 0-128 57.6-128 128s57.6 128 128 128 128-57.6 128-128-57.6-128-128-128z"/><path d="M981.333 469.333C981.333 211.2 772.267 0 512 0S42.667 211.2 42.667 469.333c0 219.734 151.466 405.334 356.266 454.4l-55.466 57.6H219.733c-10.666 0-19.2 8.534-19.2 21.334s8.534 21.333 19.2 21.333H819.2c10.667 0 19.2-8.533 19.2-21.333s-8.533-21.334-19.2-21.334H680.533l-55.466-55.466c204.8-51.2 356.266-234.667 356.266-456.534zM512 128c12.8 0 21.333 8.533 21.333 21.333S524.8 170.667 512 170.667s-21.333-8.534-21.333-21.334S499.2 128 512 128zm0 512c-93.867 0-170.667-76.8-170.667-170.667S418.133 298.667 512 298.667s170.667 76.8 170.667 170.666S605.867 640 512 640z"/></svg>