<svg class="icon" viewBox="0 0 1024 1024" xmlns="http://www.w3.org/2000/svg" width="64" height="64"><defs><style/></defs><path d="M884.224 1024H139.776C62.464 1024 0 961.536 0 884.224V139.776C0 62.464 62.464 0 139.776 0h744.96C961.536 0 1024 62.464 1024 139.776v744.96c0 76.8-62.464 139.264-139.776 139.264zm-576-580.608L418.816 276.48l-75.776-44.032L215.552 424.96l-52.736 81.92 164.864 51.712-94.72 142.848-9.728 67.584 85.504-24.064 156.16-236.032-156.672-65.536zM780.8 275.456H596.992c-25.6 0-46.08 17.408-46.08 39.424 0 21.504 20.48 39.424 46.08 39.424H780.8c25.6 0 46.08-17.408 46.08-39.424 0-21.504-20.48-39.424-46.08-39.424zm0 197.12H596.992c-25.6 0-46.08 17.408-46.08 39.424 0 21.504 20.48 39.424 46.08 39.424H780.8c25.6 0 46.08-17.408 46.08-39.424 0-21.504-20.48-39.424-46.08-39.424zm0 197.632H596.992c-25.6 0-46.08 17.408-46.08 39.424s20.48 39.424 46.08 39.424H780.8c25.6 0 46.08-17.408 46.08-39.424s-20.48-39.424-46.08-39.424zm0 0"/></svg>