<svg class="icon" viewBox="0 0 1024 1024" xmlns="http://www.w3.org/2000/svg" width="64" height="64"><defs><style/></defs><path d="M838.187 357.76l139.306-79.36c25.174-15.36 46.507-2.56 46.507 23.04v428.373c0 28.16-21.333 38.4-46.507 23.04l-139.306-79.36c-25.814-15.36-46.507-30.72-46.507-56.32V411.52c0-25.6 21.333-38.4 46.507-53.76M648.533 176.853h-550.4A97.707 97.707 0 0 0 0 274.133v478.72a97.707 97.707 0 0 0 98.133 97.28h550.4a97.707 97.707 0 0 0 98.134-97.28v-478.72a97.707 97.707 0 0 0-98.134-97.28zM184.96 475.52a85.333 85.333 0 1 1 85.333-85.333 85.333 85.333 0 0 1-85.333 85.333z"/></svg>