<svg class="icon" viewBox="0 0 1024 1024" xmlns="http://www.w3.org/2000/svg" width="64" height="64"><defs><style/></defs><path d="M950 885.2h-65.7v-55.7H148.5v55.7H85v53.5H36.8v55.7h961.3v-55.7H950v-53.5zM306.2 782.7V499.8H339v-37.9c0-22.3-17.5-42.3-41.6-42.3H155.1c-21.9 0-39.4 17.8-39.4 42.3v37.9h35v282.9h155.5zm575.9 0V499.8h35v-37.9c0-22.3-17.5-42.3-39.4-42.3H735.4c-21.9 0-39.4 17.8-39.4 42.3v37.9h35v282.9h151.1zm-289 0V499.8h35v-37.9c0-22.3-17.5-42.3-39.4-42.3H446.3c-21.9 0-39.4 17.8-39.4 42.3v37.9h32.8v282.9h153.4zm383.2-508l-427-240.6c-24.1-13.4-50.4-13.4-74.4 0l-427 240.6C19.3 290.3 4 319.3 4 350.5v26.7h1016.1v-26.7c0-31.2-17.5-60.2-43.8-75.8zm-302.2-13.3H352.2c-4.4 0-8.8-2.2-8.8-6.7s0-8.9 4.4-11.1L477 170c24.1-13.4 50.4-13.4 74.5 0l129.2 73.5c4.4 2.2 6.6 6.7 4.4 11.1-4.4 4.5-6.6 6.8-11 6.8zm0 0"/></svg>