<svg class="icon" viewBox="0 0 1024 1024" xmlns="http://www.w3.org/2000/svg" width="64" height="64"><defs><style/></defs><path d="M641.226 701.818c-12.97 12.016-31.497 32.553-55.051 61.26l-20.361 24.76-27.727-16.087c-132.524-76.996-239.409-190.442-299.814-321.96l-11.312-24.635 19.758-18.602c27.073-25.414 46.856-45.398 59.123-59.626a192.05 192.05 0 0 0 6.41-7.793 534.296 534.296 0 0 1-19.305-154.947 35.444 35.444 0 0 0-2.036-1.131 74.23 74.23 0 0 0-28.18-6.762l-156.203-5.455c-6.21-.2-6.964.503-7.19 6.712C85.412 576.609 396.69 910.409 795.746 924.335c5.882.201 6.963-.78 7.164-6.687l5.33-152.081c.401-11.915.426-17.848-.127-24.434-1.106-13.121-.502-12.242-2.89-12.141-53.367 1.91-103.868-8.421-161.081-29.813a161.458 161.458 0 0 0-2.916 2.64zm-92.204-11.764c16.038-18.602 29.637-33.08 40.974-43.563 27.4-25.389 46.454-36.374 71.19-21.518 52.788 20.613 96.552 30.266 141.02 28.657 51.96-2.262 76.946 32.804 81.043 81.144.905 10.482.88 18.601.352 33.407l-5.304 152.082c-1.684 47.71-37.832 81.093-85.216 79.434-440.659-15.384-784.489-384.1-769.105-824.76 1.66-47.836 37.354-81.118 85.191-79.459l156.179 5.455c53.241 1.86 104.974 28.003 103.139 80.138a459.764 459.764 0 0 0 19.733 149.392c9.1 29.41-8.07 53.04-69.631 111.937 50.778 98.036 131.52 184.207 230.435 247.654zm28.53-490.557a298.633 298.633 0 0 1 168.673 84.763 298.633 298.633 0 0 1 85.895 177.018 16.616 16.616 0 0 1-16.34 18.552l-25.036.251a18.15 18.15 0 0 1-18.2-15.761 238.931 238.931 0 0 0-68.248-138.105 238.931 238.931 0 0 0-130.212-67.067 21.895 21.895 0 0 1-18.3-22.171l.503-19.557a18.602 18.602 0 0 1 21.266-17.923zm4.25-179.23a477.863 477.863 0 0 1 290.286 138.155 477.863 477.863 0 0 1 139.337 303.71 14.68 14.68 0 0 1-14.48 15.762l-29.334.302a15.585 15.585 0 0 1-15.711-14.354 418.136 418.136 0 0 0-121.766-263.465 418.111 418.111 0 0 0-251.877-120.66 20.11 20.11 0 0 1-17.999-20.537l.503-20.387a19.104 19.104 0 0 1 21.04-18.526zM563.374 395.82c42.608 2.062 74.583 33.282 77.6 75.664.15 2.162-2.715 6.712-3.771 6.787-13.901 1.056-39.365 2.816-76.292 5.304h-.176a6.913 6.913 0 0 1-7.365-7.566 32177.46 32177.46 0 0 0 5.329-77.373c.05-.78 3.217-2.891 4.675-2.816z"/></svg>