<svg class="icon" viewBox="0 0 1024 1024" xmlns="http://www.w3.org/2000/svg" width="64" height="64"><defs><style/></defs><path d="M511.032 2.111c-280.336 0-507.61 227.198-507.61 507.537 0 280.333 227.274 507.57 507.61 507.57 280.3 0 507.536-227.237 507.536-507.57 0-280.339-227.237-507.537-507.536-507.537zM764.88 565.665H495.374c-5.699 0-11.171-1.136-16.19-3.265-14.894-6.308-25.391-21.095-25.391-38.309V254.584c0-22.99 18.623-41.615 41.581-41.615 23.037 0 41.659 18.626 41.659 41.615v227.848H764.88c22.997 0 41.614 18.622 41.614 41.62 0 22.99-18.623 41.613-41.614 41.613zm0 0"/></svg>