<svg xmlns="http://www.w3.org/2000/svg" viewBox="0 0 152.7 24.5"><path d="M.6 5.8C2 4.2 3.1 2.2 3.8 0L7 1.1c-.1.2-.3.4-.4.7-.3.5-.6.8-.7 1h4.2l.9-.9 2.1 1.7-.7 1.2H9.2c0 .7-.1 1.4-.2 2h1.1l.8-1 2.4 2-.7 1.2H8.3l-.1.3c1.9.5 3.1.9 3.8 1.2.4.1.5.5.4 1-.1.7-.3 1.3-.5 1.9l-.1.1h4.7l1.2-1.3 3.8 2.3-1.1 1.3v8.3h-3.6v-1.2H8v1.2H4.5V13.2c-1 .6-2.2 1.1-3.7 1.5L0 13.3c2.4-1.2 4-2.6 4.9-4.3h-4L.5 6.9h5.2c.1-.6.2-1.3.2-2H4.1c-.7.6-1.5 1.2-2.3 1.8L.6 5.8zM8 13.1v.5h2.6c-1.2-1.1-2.4-2-3.5-2.7-.6.8-1.5 1.6-2.6 2.2H8zm0 2.6v1.6h8.7v-1.6H8zm0 3.8V21h8.7v-1.5H8zm5.4-17.6h3.4v.6h2.5l1-1.2 3.5 2.2-1 1.2v7.6h-3.4v-.7h-2.6v.7h-3.4V1.9zm3.4 2.8v4.9h2.6V4.7h-2.6zm18.1-2c1.2.8 2.5 2.1 4.1 4 .3.3.3.7 0 1-.4.5-.9 1.1-1.6 1.6-.5.4-.8.3-1-.2-.1-.1-.2-.3-.3-.6-.1-.2-.2-.3-.2-.5-.8.1-2.2.2-4.2.5-1.9.3-3.3.5-4.2.6l-.6-2.7c.1-.1.2-.1.4-.2.7-.2 1.1-.4 1.2-.7 1.2-1.6 2.1-3.4 2.8-5.4L35 1.3c-2 2.5-3.4 4.2-4.2 5 .5 0 1.2 0 2.2-.1h1.9c-.4-1.1-.8-2-1.3-2.6l1.3-.9zm-7.1 6.9h3.3v.7h3.4l.5-1.2 3.5 1.8-.8 1.1v9.9c.3 1.5-.9 2.3-3.6 2.5.1-1-.4-1.5-1.7-1.5l-.2-1.2c1.6.1 2.4 0 2.2-.4v-1.9H31v4.9h-3.3V9.6zm3.3 2.8v1.5h3.4v-1.5h-3.4zm0 3.4v1.6h3.4v-1.6h-3.4zM39.2.6h3.4v3.8c1.3-.7 2.5-1.7 3.8-2.9l2.4 2.6c-1.8 1-3.9 1.8-6.2 2.3v1.7c-.1.7.2 1 .7.9h2.1c.7.1 1.3-.8 1.7-2.6l1.4.5c-.5 1.2-.2 1.9.9 2.1-.5 1.9-1.6 2.8-3 2.7H42c-1.8-.1-2.8-1-2.8-2.7V.6zm0 11.8h3.4v3.5c1.6-.9 3-1.9 4.2-2.9l2.5 2.4c-2 1.2-4.3 2.1-6.7 2.5v2.6c.1.6.4.9 1 .9h1.7c.9.1 1.6-.9 2.2-3l1.5.6c-.5 1.2-.3 1.9.8 2.3-.6 1.9-1.7 2.8-3.4 2.7H42c-2 0-2.9-.8-2.9-2.5v-9.1zm23.6-7.2c.8.4 1.6.9 2.4 1.6.4.2.4.5.1.9l-.1.1c0 .1 0 .1-.1.2h7.5l.8-1.1 2.9 2.4-1.5 1.1-.5.5c-.4.5-.9 1.1-1.5 1.7l-1.1-.4-.3.5v3.9h-2l3.6 1.7-.8 1.2v4.7h-3.4v-1h-8.1v1h-3.5V10.7h3.5v.6H68l.5-.9 3.4 1.5c.1-.6.3-1.2.5-1.8H56.2c-.1.7-.2 1.4-.3 2-.1.4-.3.5-.8.4-.7-.2-1.3-.4-1.9-.7-.4-.2-.4-.5-.1-.8.6-.9 1.2-2.1 1.8-3.8l1.3.4V8h6.6c-.3-.7-.6-1.5-1-2.1l1-.7zM53 6.9c1.4-1.8 2.5-4 3.4-6.6l3.1.8c-.1.1-.2.3-.4.6-.1.3-.3.6-.4.7h3l.6-1 2.1 1.5-.8 1.3h-5c.8.3 1.6.6 2.2 1 .3.1.4.4.2.8-.3.7-.6 1.1-.8 1.3-.2.3-.4.4-.5.4-.1 0-.2-.1-.3-.4-.6-.9-1.3-1.8-1.9-2.4l.7-.7h-.8c-.6.9-1.6 2-3 3.3L53 6.9zm7.6 6.3v1.2H68v-1.2h-7.4zm8.1 4.6l.6-1.1H68v-.3h-7.4v1.4h8.1zm-8.1 2v1.5h8.1v-1.5h-8.1zM64.4 6c1-1.8 1.8-3.7 2.3-5.7l3 .9c-.3.4-.5.8-.7 1.2h4l.6-1 2 1.5-.8 1.3h-5c.7.3 1.3.6 1.9.9.5.2.6.5.3.8-.1.4-.4.8-.7 1.3-.3.5-.6.5-.9.1-.5-1-1.2-1.8-1.9-2.4l.6-.7h-1.3c-.7.8-1.4 1.6-2.1 2.3L64.4 6zM92.7.3c1.1.3 2.2.8 3.5 1.5.3.1.3.4.1.9-.1.3-.2.6-.4.9h2.9l1.2-1 2.6 1.9c.2.2.2.4-.1.6l-.9.6c-.7 1-1.5 1.9-2.3 2.7L98.2 8c.2-.7.4-1.5.6-2.3h-9.1c-.1.8-.2 1.6-.3 2.2-.1.3-.3.4-.7.3-.7-.3-1.3-.5-1.7-.8l-.2.3h-2.1v4c.6-.2 1.3-.4 2-.6l.6 1.5c-.3.1-.7.4-1.3.7-.5.3-1 .6-1.3.8v7.4c.2 1.6-1.1 2.4-3.8 2.6 0-1-.7-1.7-2-1.9l-.1-1.2c.9.1 1.5.1 1.9.1.5-.1.8-.3.7-.7v-4.8c-.3.2-.9.5-1.7.8-.2.1-.4.1-.5.2L78 13.2c.5-.1 1.1-.2 1.9-.4.7-.1 1.2-.2 1.5-.3V7.8h-2.7l-.4-2.1h3.1V.6h3.3v5.1h.1l.8-.8 1.3 1.3c.6-.8 1.2-2 1.8-3.7l1.2.3c0 .1 0 .3-.1.5v.3h3.8l-1.8-2.4.9-.9zm-6.3 20.9h6v-5.1H88l-.6-2.1h10.3l1-1 2.5 2-.6 1.1h-4.8v5.1h3l1-1.1 2.5 2-.7 1.2H86.8l-.4-2.1zm.8-9.2c1.8-1.5 3.1-3.2 4-5.1l3 2c-2 1.9-4 3.3-6 4.2l-1-1.1zm8.6-4.5c2 .7 3.6 1.4 4.8 2 .3.2.4.5.2.9-.2.7-.5 1.4-.9 2.1-.3.4-.6.4-1 0-.7-1.2-2-2.5-3.8-4.1l.7-.9zm10.7-5.7h15l1.4-1.4 3 2.6-.7 1.1h-7.4V13h5.5l1.4-1.7 3.5 2.6-.7 1.5h-9.6v8.8H114v-8.8h-8.9l-.7-2.4h9.6V4.2h-6.9l-.6-2.4zm2 3.9c1.5 1 2.7 1.9 3.6 2.5.3.2.3.5.1 1-.3.8-.8 1.5-1.4 2.1-.5.5-.8.5-1.1-.1-.6-1.6-1.4-3.2-2.2-4.7l1-.8zm10.5 5.2c1.2-1.8 2.1-3.6 2.7-5.6l3.4 1.7c-1.1 1.5-2.6 3.1-4.6 4.8l-1.5-.9zm26.8-6.6c2.6 1.7 4.8 3.3 6.6 4.7.3.2.4.5.1 1-.5.9-1.1 1.9-1.7 2.8-.4.5-.7.4-1-.1-.4-.7-.9-1.5-1.6-2.4-5.6.9-10.6 1.6-15.1 2l-1.2-4.1c1.3.1 2.3-.2 3-1 1.4-1.6 2.7-3.9 4-6.8l4.9 1.4c-2.1 2.7-4 4.9-5.8 6.5 2.8-.1 5.7-.3 8.6-.5-.7-.9-1.4-1.9-2.1-2.7l1.3-.8zm-11.9 8.6h3.9v1h8.2l1.2-1.5 3.8 2.4-.9.9v8.5h-3.9v-1.4h-8.4v1.5h-3.9V12.9zm3.8 3.4v4.5h8.4v-4.5h-8.4z"/></svg>