<svg class="icon" viewBox="0 0 1024 1024" xmlns="http://www.w3.org/2000/svg" width="64" height="64"><defs><style/></defs><path d="M876.128 14.897H147.872C74.55 14.897 15.52 74.55 15.52 148.494v600.873c0 73.944 59.03 133.596 132.353 133.596h728.256c73.322 0 132.353-59.652 132.353-133.596V148.494c0-73.944-59.03-133.597-132.353-133.597zm-148.51 462.927L396.424 677.287c-5.593 3.107-11.185 4.97-16.778 4.97-5.592 0-11.184-1.242-16.155-4.349-10.564-5.592-16.778-16.777-16.778-29.205V249.157c0-11.806 6.214-22.991 16.778-29.205s22.99-5.592 33.554.622L728.24 420.036c9.942 6.214 16.156 16.777 16.156 28.583-.622 12.428-6.836 22.991-16.778 29.205zM78.278 945.101h868.065v64.002H78.278z"/></svg>