<svg class="icon" viewBox="0 0 1024 1024" xmlns="http://www.w3.org/2000/svg" width="64" height="64"><defs><style/></defs><path d="M826.388 49.665H197.612c-101.714 0-184.934 83.22-184.934 184.934V789.4c0 101.714 83.22 184.934 184.934 184.934h628.776c101.714 0 184.934-83.22 184.934-184.934V234.6c0-101.714-83.22-184.934-184.934-184.934zM86.652 752.415v-480.83h850.696v480.83H86.652zm110.96-628.776h628.776c48.083 0 88.768 31.438 103.563 73.973H94.049c14.795-42.535 55.48-73.973 103.563-73.973zM826.388 900.36H197.612c-48.083 0-88.768-31.438-103.563-73.973H931.8c-16.644 42.535-57.33 73.973-105.412 73.973z"/><path d="M647.002 449.122l-151.646-90.617c-11.096-7.398-24.041-11.096-38.836-11.096-40.686 0-73.974 33.288-73.974 73.973v183.085c0 12.945 3.699 25.89 11.096 38.836 9.247 16.644 25.891 29.59 46.234 33.288 5.548 1.85 12.945 1.85 18.493 1.85 12.946 0 25.89-3.699 38.836-11.096l151.646-90.618c11.096-5.548 18.494-14.795 25.891-25.89 18.493-35.138 7.397-81.372-27.74-101.715zM608.166 512L456.52 602.618V419.533L608.166 512z"/></svg>