<svg class="icon" viewBox="0 0 1024 1024" xmlns="http://www.w3.org/2000/svg" width="64" height="64"><defs><style/></defs><path d="M509.08 638.833h373.865c28.2 0 53.973 11.65 72.46 30.1.488.525.97.525.97 1.012 18.005 18.448 29.132 43.773 29.132 70.963 0 28.198-11.655 53.969-30.102 72.456-.486.483-.971.93-1.499 1.457-18.447 17.478-43.247 28.644-70.963 28.644H509.08c-28.158 0-53.93-11.652-72.42-30.1l15.618-15.618-15.618 15.617c-.484-.528-.97-1.011-.97-1.456-17.964-18.491-29.17-43.29-29.17-71 0-28.16 11.692-53.488 30.14-71.974 18.49-18.452 44.262-30.101 72.42-30.101zm430.266-23.87c-149.207 0-300.438 2.468-449.724 0-7.243 0-14.08-3.36-18.45-9.67L341.87 407.42c-15.536-24.315-25.773-38.919-31.596-41.834-1.456-.93-.487 3.926-5.867 10.721-18.935 22.86-36.94 45.192-54.417 67.525-7.768 9.79-15.534 19.498-25.77 32.647-1.457 1.9-3.44 3.882-5.826 5.783-9.71 6.838-23.345 4.896-30.183-4.853-15.008-20.873-23.747-35.478-32.042-50.085-5.34-9.185-10.194-17.963-17.032-28.159-5.826-8.294-5.34-19.46 1.011-27.229L252.944 241.15c20.39-23.81 39.365-36.959 59.309-38.415 21.847-1.903 41.308 9.71 60.766 35.483 16.994 23.343 42.24 57.852 67.038 92.849 16.508 22.857 32.61 45.686 47.176 65.632 6.35-11.165 12.623-22.374 19.46-33.984 31.595-55.943 69.017-121.098 97.743-167.262 3.36-7.282 10.641-12.178 19.381-12.178h64.205c50.089-.484 105.472-.93 146.82 0h.97c12.14 0 22.375 9.266 22.375 21.422.97 28.18.485 56.864 0 85.57 0 20.874-.524 41.812 0 62.221h81.158c40.377 0 64.65 35.512 74.36 80.705 2.953 15.534 4.895 32.083 4.895 49.07 0 17.032-1.942 34.025-5.382 49.643-9.668 46.605-34.467 83.058-73.872 83.058zm-933.394 5.38c-17.964-86.012 29.171-149.73 90.908-203.214.97-.97 1.941-1.941 2.954-2.426 10.156-6.798 23.748-3.843 30.1 6.352l58.785 89.93c2.47 2.876 3.477 6.315 3.926 9.671l-21.404 3.44 21.403-3.44c6.795 45.272 21.887 75.371 46.161 95.803 25.286 21.402 61.78 34.024 108.913 44.219 4.895.975 9.749 3.399 13.147 7.77 7.282 9.263 5.826 23.386-3.398 30.627l-13.634-16.951 13.634 16.95c-88.48 71.528-180.886 76.343-249.38 45.27-25.811-12.176-48.67-29.21-65.66-50.57-18.007-20.916-30.669-46.203-36.455-73.43z"/><path d="M766.794 385.047H614.15c-3.443 0-7.324-.972-10.724-2.913-10.72-5.827-14.079-18.936-8.251-29.647l52.958-93.822c3.397-7.787 11.207-13.168 19.947-13.168h98.713c12.139 0 21.849 10.237 21.849 21.888v95.812a21.757 21.757 0 0 1-21.848 21.85zm116.151 297.52H509.08c-15.98 0-30.586 6.312-41.308 17.032-10.72 10.722-17.476 25.288-17.476 41.308 0 15.533 6.271 30.142 16.506 40.334 0 .528.486 1.012.97 1.012 10.238 10.68 25.327 17.476 41.308 17.476h373.865c15.576 0 30.142-6.311 40.378-16.507l.974-.97c10.678-10.194 17.516-25.285 17.516-41.345 0-15.537-6.351-29.655-16.587-40.337l-.93-.97c-10.72-10.721-25.288-17.033-41.35-17.033z"/><path d="M857.664 704.455c19.984 0 36.49 16.546 36.49 36.455 0 20.388-16.506 36.45-36.49 36.45-20.432 0-36.455-16.063-36.455-36.452 0-19.907 16.023-36.452 36.455-36.452zm-107.944 0c20.474 0 36.495 16.546 36.495 36.455 0 20.388-16.021 36.45-36.495 36.45-19.864 0-36.45-16.063-36.45-36.452 0-19.907 16.586-36.452 36.45-36.452zm-107.415 0c19.945 0 36.493 16.546 36.493 36.455 0 20.388-16.548 36.45-36.493 36.45-20.389 0-36.45-16.063-36.45-36.452 0-19.907 16.061-36.452 36.45-36.452zm-107.898 0c20.392 0 36.454 16.546 36.454 36.455 0 20.388-16.062 36.45-36.454 36.45-19.946 0-36.453-16.063-36.453-36.452 0-19.907 16.507-36.452 36.453-36.452z"/></svg>