<svg class="icon" viewBox="0 0 1024 1024" xmlns="http://www.w3.org/2000/svg" width="64" height="64"><defs><style/></defs><path d="M927.35 44.388v99.267H755.233v70.905h172.115v170.173H755.234v70.906h172.115V625.81H755.234v70.906h172.115v174.115c-26.693-17.343-54.604-32.304-71.714-32.304-40.864 0-130.98 99.268-172.113 99.268-41.136 0-131.253-99.268-172.116-99.268s-112.232 99.268-157.771 99.268c-45.538 0-121.813-99.268-172.113-99.268S23.749 923.613 23.749 923.613v85.086s107.472-85.086 157.772-85.086 126.575 99.268 172.113 99.268c45.54 0 116.909-99.268 157.771-99.268s130.98 99.268 172.115 99.268c41.135 0 131.251-99.268 172.114-99.268s143.428 85.086 143.428 85.086V44.388h-71.713zM317.777 682.535c138.623 0 251-111.108 251-248.169 0-137.06-243.828-432.522-243.828-432.522S66.778 297.306 66.778 434.366s112.377 248.17 251 248.17zm179.285-257.033c0 3.293-.073 6.564-.214 9.815-4.027-62.752-63.746-174.852-114.76-254.725 50.092 73.897 114.974 181.794 114.974 244.91zm-326.506-99.867c-16.853 36.922-29.184 71.777-32.052 99.006.269-26.995 13.157-62.01 32.052-99.006z"/></svg>