<svg class="icon" viewBox="0 0 1024 1024" xmlns="http://www.w3.org/2000/svg" width="64" height="64"><defs><style/></defs><path d="M310.84 467.058h421.434a23.21 23.21 0 0 0 22.755-23.21V39.252a23.21 23.21 0 0 0-22.755-21.845H310.84a23.21 23.21 0 0 0-23.21 22.3v404.594a23.21 23.21 0 0 0 23.21 22.756zm83.286-299.008a23.666 23.666 0 0 1 23.21-23.21h208.442a23.21 23.21 0 0 1 23.21 23.21v40.96H417.337a23.21 23.21 0 0 1-23.21-24.121zm61.895 364.089H55.524a23.21 23.21 0 0 0-23.211 23.21v425.53a23.21 23.21 0 0 0 23.666 22.3h400.953a23.21 23.21 0 0 0 23.21-23.211V554.894a23.21 23.21 0 0 0-23.21-23.21zm-82.83 169.301a23.21 23.21 0 0 1-23.21 23.21H162.474a23.21 23.21 0 0 1-23.211-23.21v-15.929a23.666 23.666 0 0 1 23.21-23.666H349.98a23.666 23.666 0 0 1 23.211 23.211zm591.645-169.756H565.248a23.21 23.21 0 0 0-23.21 23.21v425.53a23.21 23.21 0 0 0 23.665 22.3h400.953a23.21 23.21 0 0 0 23.21-23.211V554.894a23.21 23.21 0 0 0-23.21-23.21zM881.55 701.44a23.21 23.21 0 0 1-23.21 23.21H671.289a23.21 23.21 0 0 1-23.21-23.21v-15.929a23.666 23.666 0 0 1 23.21-23.21h187.506a23.666 23.666 0 0 1 23.21 23.21z"/></svg>