<svg class="icon" viewBox="0 0 1024 1024" xmlns="http://www.w3.org/2000/svg" width="64" height="64"><defs><style/></defs><path d="M738.625 179.128h-122.24v-62.084h122.24c19.202 0 34.683 13.836 34.683 31.042v.432c0 16.788-15.48 30.61-34.683 30.61zm-174.223-62.084H459.517v62.084H563.93v-62.084h.485zm434.614 336.58v19.756c0 12.58-11.246 22.654-25.297 22.654l-33.726 5.016c10.761 19.324 17.342 40.724 17.342 66.332l12.621 130.492c0 3.803-.431 7.565-.903 11.327.472 2.562.903 5.057.903 7.579v156.963c0 22.25-20.092 40.292-45.403 40.292h-69.312c-24.812 0-45.443-18.03-45.443-40.306v-50.366h-594.76v50.366c0 22.277-20.146 40.306-45.403 40.306H100.31c-24.812 0-45.444-18.03-45.444-40.306V716.766c0-2.494.472-5.016.944-7.551-.472-3.776-.944-7.538-.944-11.327l12.676-130.506c0-25.217 6.055-47.008 17.287-66.332L50.2 495.603c-14.064 0-25.297-10.074-25.297-22.655v-19.715c0-12.635 11.233-22.654 25.297-22.654h91.32c4.665 0 8.9 1.24 12.621 3.317l41.21-111.195c11.246-52.456 53.885-93.18 123.655-93.18h386.366c60.883 0 110.52 30.206 123.628 93.18l41.21 110.777c3.762-1.658 7.51-2.9 11.704-2.9h91.333c14.523.392 25.77 10.465 25.77 23.046zM225.8 407.48l-11.246 39.874c2.346 29.356 42.167 52.456 74.935 52.456h445.847c32.768 0 72.13-23.1 74.948-52.456l-11.246-39.874-30.92-73.466c-2.806-13.835-8.9-16.775-19.203-28.102H276.421c-9.83 11.327-16.883 13.836-19.688 28.102l-.472 1.686-30.435 71.78zM315.743 687.8c0-33.982-30.921-61.261-68.84-61.261-37.96 0-68.84 27.28-68.84 61.261 0 34.036 30.88 61.315 68.84 61.315 37.919 0 68.84-27.71 68.84-61.315zm314.694-35.236c0-10.073-9.372-18.029-20.578-18.029H417.35c-11.232 0-20.577 7.956-20.577 18.03v51.201c0 10.073 9.345 18.07 20.577 18.07h192.954c11.246 0 20.632-7.997 20.632-18.07v-51.202h-.486zm215.891 35.236c0-33.982-30.907-61.261-68.826-61.261-37.92 0-68.84 27.28-68.84 61.261 0 34.036 30.92 61.315 68.84 61.315 37.919 0 68.84-27.71 68.84-61.315zM284.822 179.128h122.24v-62.084H285.293c-19.189 0-34.67 13.836-34.67 31.042v.432c0 16.788 15.481 30.61 34.198 30.61z"/></svg>