<svg class="icon" viewBox="0 0 1024 1024" xmlns="http://www.w3.org/2000/svg" width="64" height="64"><defs><style/></defs><path d="M328.728-3.449l362.676-.47-65.612 95.38-231.1-.611L328.728-3.45zm67.634 114.287h229.1c-.563 58.272 1.741 123.224-70.997 153.418-45.27 18.767-90.75 6.303-108.789-7.243-51.971-39.036-48.89-92.088-49.314-146.175zm-231.03 313.936l3.575 563.016s-7.149 43.74 25.587-12.957l93.832-162.54c6.961-12.017-.259-223.167 3.175-210.397 5.385 20.342 20.67 149.185 24.74 149.185l40.896.046 315.456-426.53-410.111.941c-72.833.14-101.029 45.832-97.15 99.236zm567.462-99.706c1.646-2.164 121.817-11.43 120.5 78.566-.848 55.075 5.714 592.012 5.714 592.012s.8 15.544-13.569-5.385c-14.298-20.953-108.742-177.967-108.742-177.967l-3.245-212.937s-6.162 20.576-16.038 71.464c-9.783 50.913-16.109 80.308-16.109 80.308l-288.951-.282 320.44-425.78zm-407.146 476.76h372.765l129.93 213.806-609.814.095c-6.514 0-7.785-10.465.235-24.598l106.884-189.303z"/></svg>