<svg class="icon" viewBox="0 0 1024 1024" xmlns="http://www.w3.org/2000/svg" width="64" height="64"><defs><style/></defs><path d="M1016.341 937.697L639.413 328.051c-.578-1.77-1.337-3.504-2.384-5.13l-95.623-153.82 60.979-98.08c6.647-10.728 3.36-24.817-7.334-31.464-10.729-6.647-24.817-3.36-31.464 7.333l-49.058 78.933L465.47 46.89c-6.647-10.729-20.736-14.016-31.465-7.333-10.73 6.647-14.016 20.736-7.333 31.465l60.979 98.08-4.841 7.766a39.035 39.035 0 0 0-1.59 2.384L413.56 288.314l-21.53 34.608a16.46 16.46 0 0 0-.614 1.083l-380.83 613.62C-5.527 963.6 13.15 997.16 43.71 997.16h320.646c16.581 0 31.357-10.512 36.811-26.154l76.333-219.28c12.03-34.571 60.798-34.968 73.406-.613l80.847 220.507c5.636 15.353 20.23 25.576 36.595 25.576h314.794c30.561-.036 49.238-33.524 33.198-59.498zM631.285 515.902c0 15.244-12.355 27.635-27.636 27.635h-62.568v62.569c0 15.244-12.355 27.635-27.636 27.635-15.245 0-27.636-12.354-27.636-27.635v-62.569h-62.568c-15.245 0-27.636-12.355-27.636-27.635 0-15.245 12.355-27.636 27.636-27.636h62.568v-62.569c0-15.244 12.355-27.635 27.636-27.635 15.245 0 27.636 12.354 27.636 27.635v62.569h62.568c15.281 0 27.636 12.39 27.636 27.636z"/></svg>