<svg class="icon" viewBox="0 0 1024 1024" xmlns="http://www.w3.org/2000/svg" width="64" height="64"><defs><style/></defs><path d="M382.667 251.98H225.51c-9.968 0-19.548 4.143-26.15 11.522L33.012 446.29c-7.379 8.155-11.521 18.77-11.521 29.644v298.262c0 8.544 6.99 15.535 15.534 15.535h19.03c6.86-73.919 68.87-131.655 144.6-131.655s137.739 57.866 144.6 131.655h37.412c8.544 0 15.534-6.991 15.534-15.535V267.515c0-8.544-6.99-15.535-15.534-15.535zm-36.765 270.041c0 5.178-4.272 9.45-9.45 9.45H124.795c-5.178 0-9.45-4.272-9.45-9.45V456c0-6.732 2.46-13.205 6.99-18.124l101.75-111.848c4.143-4.53 9.969-7.12 16.053-7.12h96.184c5.178 0 9.45 4.272 9.45 9.45v193.663z"/><path d="M106.153 798.146a94.501 94.501 0 1 0 189.003 0 94.501 94.501 0 1 0-189.003 0zm595.488 0a94.501 94.501 0 1 0 189.003 0 94.501 94.501 0 1 0-189.003 0z"/><path d="M437.555 532.766v196.899c0 33.14 27.056 60.196 60.196 60.196h153.791c6.861-73.918 68.87-131.655 144.6-131.655 75.601 0 137.74 57.866 144.6 131.655 31.846-1.424 57.348-27.962 57.348-60.067V532.766H437.555zm121.687-391.34L437.555 263.632v231.334h438.849zm181.624 143.177L924.69 494.965h73.4V354.767L842.357 189.325z"/></svg>