<svg class="icon" viewBox="0 0 1024 1024" xmlns="http://www.w3.org/2000/svg" width="64" height="64"><defs><style/></defs><path d="M1023.705 95.97c0-52.983-42.987-95.97-95.97-95.97s-95.97 42.987-95.97 95.97c0 31.929 15.744 60.013 39.737 77.415L731.108 640.24c-12.747.623-24.743 3.687-35.677 8.747L376.592 324.494a94.832 94.832 0 0 0 7.31-36.582c0-52.983-42.985-95.97-95.969-95.97-52.984 0-95.97 42.987-95.97 95.97 0 31.022 14.931 58.294 37.738 75.822L90.93 832.242C40.32 834.928.02 876.48.02 927.712c0 52.984 42.986 95.972 95.97 95.972s95.97-42.988 95.97-95.972c0-31.926-15.744-59.917-39.674-77.412l138.27-466.667c15.62-.469 30.052-4.75 42.924-11.716l316.34 321.994c-6.249 12.684-9.997 26.741-9.997 41.864 0 52.98 42.986 95.968 95.97 95.968 52.982 0 95.97-42.988 95.97-95.968 0-31.806-15.621-59.672-39.425-77.164l140.456-467.168c50.61-2.687 90.91-44.237 90.91-95.472"/></svg>