<svg class="icon" viewBox="0 0 1024 1024" xmlns="http://www.w3.org/2000/svg" width="64" height="64"><defs><style/></defs><path d="M329.294 4.218L690.85 3.75l-65.41 95.086-230.386-.61-65.76-94.007zm67.424 113.935h228.394c-.562 58.092 1.736 122.843-70.778 152.944-45.13 18.709-90.47 6.283-108.453-7.22-51.811-38.916-48.74-91.805-49.163-145.724zM166.402 431.12l3.564 561.279s-7.127 43.604 25.507-12.918l93.543-162.039c6.94-11.98-.258-222.477 3.165-209.747 5.369 20.279 20.607 148.725 24.664 148.725l40.77.046 314.482-425.214-408.845.938c-72.609.14-100.717 45.69-96.85 98.93zm565.71-99.4c1.642-2.156 121.442-11.393 120.129 78.325-.845 54.905 5.697 590.185 5.697 590.185s.797 15.496-13.528-5.368c-14.254-20.888-108.407-177.418-108.407-177.418l-3.235-212.28s-6.142 20.513-15.988 71.244c-9.752 50.755-16.059 80.06-16.059 80.06l-288.06-.282 319.451-424.465zm-405.89 475.29h371.616l129.53 213.147-607.933.094c-6.495 0-7.761-10.433.234-24.522L326.222 807.01z"/></svg>