<svg class="icon" viewBox="0 0 1024 1024" xmlns="http://www.w3.org/2000/svg" width="64" height="64"><defs><style/></defs><path d="M826.172 605.174h-691.09v62.105h.695c0 14.9 4.736 29.66 15.18 41.217 81.32 90.93 216.39 145.238 361.07 145.238s279.614-54.308 361.074-145.236c10.444-11.558 15.179-26.318 15.179-41.218h.694v-62.105h-62.802zm185.063-268.332c-6.685-19.495-22.42-34.395-42.333-39.964L529.295 172.67a63.267 63.267 0 0 0-34.535 0L55.153 296.88c-19.914 5.567-35.788 20.468-42.332 39.963a60.976 60.976 0 0 0 9.33 57.091l94.271 124.21c11.978 15.735 30.496 24.926 50.27 24.926h690.811c19.775 0 38.295-9.19 50.27-24.926l94.271-124.21c12.394-16.29 15.735-37.735 9.191-57.091zm-398.947 48.875c0 55.282-100.259 100.816-100.259 100.816s-100.537-44.002-100.537-100.816V271.255s13.088 3.064 41.774-2.646c28.547-5.709 58.625-28.685 58.625-28.685s11.138 18.52 61.686 28.685c28.545 5.709 38.99 2.646 38.99 2.646s-.279 57.648-.279 114.462z"/></svg>