<svg class="icon" viewBox="0 0 1024 1024" xmlns="http://www.w3.org/2000/svg" width="64" height="64"><defs><style/></defs><path d="M136.734 136.523L509.2.603l392.523 135.92-150.98 60.416s30.148 296.87-120.801 397.553c0 0 352.286 154.323 271.781 342.197 0 0-375.778 177.815-795.166 0 0 0-34.786-235.28 295.244-342.197 0 0-171.129-137.547-130.862-395.896l-134.204-62.073zm350.419 516.608L382.795 905.818l129.115 109.9 126.313-112.64L527.3 650.39l31.292-46.743c-46.682 32.979-101.617 0-101.617 0l30.178 49.483z"/><path d="M186.609 181.278h24.395v191.006H186.61z"/><path d="M174.14 329.788h49.333v29.817H174.14z"/></svg>